<?xml version="1.0" encoding="UTF-8"?><svg id="Layer_1" xmlns="http://www.w3.org/2000/svg" viewBox="0 0 635.57 123.73"><defs><style>.cls-1{fill:#676127;}.cls-1,.cls-2,.cls-3,.cls-4,.cls-5,.cls-6,.cls-7,.cls-8,.cls-9,.cls-10,.cls-11,.cls-12,.cls-13,.cls-14,.cls-15,.cls-16,.cls-17,.cls-18,.cls-19,.cls-20,.cls-21,.cls-22,.cls-23,.cls-24,.cls-25,.cls-26,.cls-27,.cls-28,.cls-29,.cls-30,.cls-31,.cls-32,.cls-33,.cls-34,.cls-35,.cls-36,.cls-37,.cls-38,.cls-39,.cls-40,.cls-41,.cls-42,.cls-43,.cls-44,.cls-45,.cls-46,.cls-47,.cls-48,.cls-49,.cls-50,.cls-51,.cls-52{stroke:#143109;stroke-miterlimit:10;stroke-width:4.57px;}.cls-2{fill:#ecae58;}.cls-3{fill:#6b6429;}.cls-4{fill:#feb95f;}.cls-5{fill:#74692c;}.cls-6{fill:#f0b15a;}.cls-7{fill:#f5b45c;}.cls-8{fill:#e7ac57;}.cls-9{fill:#997e3a;}.cls-10{fill:#7e6e30;}.cls-11{fill:#907937;}.cls-12{fill:#304113;}.cls-13{fill:#9e813c;}.cls-14{fill:#b99146;}.cls-15{fill:#b58e44;}.cls-16{fill:#c29649;}.cls-17{fill:#263c10;}.cls-18{fill:#cc9c4c;}.cls-19{fill:#d09e4e;}.cls-20{fill:#dea653;}.cls-21{fill:#c7994b;}.cls-22{fill:#ab8941;}.cls-23{fill:#be9447;}.cls-24{fill:#e2a955;}.cls-25{fill:#d9a452;}.cls-26{fill:#d5a150;}.cls-27{fill:#a7863f;}.cls-28{fill:#b08c42;}.cls-29{fill:#796c2e;}.cls-30{fill:#4b511d;}.cls-31{fill:#5d5c24;}.cls-32{fill:#545621;}.cls-33{fill:#50541f;}.cls-34{fill:#625e26;}.cls-35{fill:#22390e;}.cls-36{fill:#464e1c;}.cls-37{fill:#8b7635;}.cls-38{fill:#595922;}.cls-39{fill:#2b3e11;}.cls-40{fill:#877433;}.cls-41{fill:#70662b;}.cls-42{fill:#3d4918;}.cls-43{fill:#394616;}.cls-44{fill:#344415;}.cls-45{fill:#947c38;}.cls-46{fill:#827131;}.cls-47{fill:#a2843d;}.cls-48{fill:#143109;}.cls-49{fill:#424c1a;}.cls-50{fill:#1d360c;}.cls-51{fill:#19340b;}.cls-52{fill:#f9b65d;}</style></defs><g><path class="cls-48" d="M107.38,48.13c1.49-6.47-3.15-11.78-10.28-11.78h-7.8l-15.09,70.49h7.8c7.13,0,14.1-5.14,15.43-11.61l9.95-47.11Zm36.16,56.73c-1.99,9.12-13.6,16.59-26.04,16.59H29.42c-3.48,0-5.81-2.82-4.98-6.3L42.86,28.06c.66-3.32,4.15-6.14,7.63-6.14h88.08c12.44,0,20.9,7.46,19.07,16.59l-14.1,66.35Z"/><path class="cls-48" d="M233.6,86.78l-.33-42.13-18.08,42.13h18.41Zm47.6,34.67h-40.8c-3.48,0-6.8-2.82-6.8-6.14v-13.77h-24.55l-6.14,13.77c-1.33,3.32-5.64,6.14-8.96,6.14h-40.97c-2.82,0-4.15-2.32-3.48-5.14,.17-.83,.5-1.66,.99-2.49L196.95,28.06c1.66-3.15,5.81-6.14,9.29-6.14h64.03c3.48,0,6.14,2.99,6.47,6.14l10.12,85.75c.17,1,.17,1.99-.17,2.99-.5,2.82-2.65,4.64-5.47,4.64Z"/><path class="cls-48" d="M405.94,36.35c-.83,3.48-4.31,6.3-7.63,6.3h-28.03l-15.26,72.48c-.83,3.48-4.15,6.3-7.63,6.3h-36.66c-3.48,0-5.64-2.82-4.81-6.3l15.26-72.48h-29.03c-3.48,0-5.64-2.82-4.81-6.3l1.66-8.29c.66-3.32,4.15-6.14,7.63-6.14h106.16c3.32,0,5.47,2.82,4.81,6.14l-1.66,8.29Z"/><path class="cls-48" d="M529.51,36.35c-.83,3.48-4.31,6.3-7.63,6.3h-28.03l-15.26,72.48c-.83,3.48-4.15,6.3-7.63,6.3h-36.66c-3.48,0-5.64-2.82-4.81-6.3l15.26-72.48h-29.03c-3.48,0-5.64-2.82-4.81-6.3l1.66-8.29c.66-3.32,4.15-6.14,7.63-6.14h106.16c3.32,0,5.47,2.82,4.81,6.14l-1.66,8.29Z"/><path class="cls-48" d="M579.93,86.78l-.33-42.13-18.08,42.13h18.41Zm47.6,34.67h-40.8c-3.48,0-6.8-2.82-6.8-6.14v-13.77h-24.55l-6.14,13.77c-1.33,3.32-5.64,6.14-8.96,6.14h-40.97c-2.82,0-4.15-2.32-3.48-5.14,.17-.83,.5-1.66,.99-2.49l46.44-85.75c1.66-3.15,5.81-6.14,9.29-6.14h64.03c3.48,0,6.14,2.99,6.47,6.14l10.12,85.75c.17,1,.17,1.99-.17,2.99-.5,2.82-2.65,4.64-5.47,4.64Z"/></g><g><path class="cls-51" d="M106.95,47.74c1.49-6.47-3.15-11.78-10.28-11.78h-7.8l-15.09,70.49h7.8c7.13,0,14.1-5.14,15.43-11.61l9.95-47.11Zm36.16,56.73c-1.99,9.12-13.6,16.59-26.04,16.59H28.99c-3.48,0-5.81-2.82-4.98-6.3L42.43,27.67c.66-3.32,4.15-6.14,7.63-6.14h88.08c12.44,0,20.9,7.46,19.07,16.59l-14.1,66.35Z"/><path class="cls-51" d="M233.17,86.39l-.33-42.13-18.08,42.13h18.41Zm47.6,34.67h-40.8c-3.48,0-6.8-2.82-6.8-6.14v-13.77h-24.55l-6.14,13.77c-1.33,3.32-5.64,6.14-8.96,6.14h-40.97c-2.82,0-4.15-2.32-3.48-5.14,.17-.83,.5-1.66,.99-2.49L196.52,27.67c1.66-3.15,5.81-6.14,9.29-6.14h64.03c3.48,0,6.14,2.99,6.47,6.14l10.12,85.75c.17,1,.17,1.99-.17,2.99-.5,2.82-2.65,4.64-5.47,4.64Z"/><path class="cls-51" d="M405.51,35.97c-.83,3.48-4.31,6.3-7.63,6.3h-28.03l-15.26,72.48c-.83,3.48-4.15,6.3-7.63,6.3h-36.66c-3.48,0-5.64-2.82-4.81-6.3l15.26-72.48h-29.03c-3.48,0-5.64-2.82-4.81-6.3l1.66-8.29c.66-3.32,4.15-6.14,7.63-6.14h106.16c3.32,0,5.47,2.82,4.81,6.14l-1.66,8.29Z"/><path class="cls-51" d="M529.08,35.97c-.83,3.48-4.31,6.3-7.63,6.3h-28.03l-15.26,72.48c-.83,3.48-4.15,6.3-7.63,6.3h-36.66c-3.48,0-5.64-2.82-4.81-6.3l15.26-72.48h-29.03c-3.48,0-5.64-2.82-4.81-6.3l1.66-8.29c.66-3.32,4.15-6.14,7.63-6.14h106.16c3.32,0,5.47,2.82,4.81,6.14l-1.66,8.29Z"/><path class="cls-51" d="M579.5,86.39l-.33-42.13-18.08,42.13h18.41Zm47.6,34.67h-40.8c-3.48,0-6.8-2.82-6.8-6.14v-13.77h-24.55l-6.14,13.77c-1.33,3.32-5.64,6.14-8.96,6.14h-40.97c-2.82,0-4.15-2.32-3.48-5.14,.17-.83,.5-1.66,.99-2.49l46.44-85.75c1.66-3.15,5.81-6.14,9.29-6.14h64.03c3.48,0,6.14,2.99,6.47,6.14l10.12,85.75c.17,1,.17,1.99-.17,2.99-.5,2.82-2.65,4.64-5.47,4.64Z"/></g><g><path class="cls-50" d="M106.52,47.36c1.49-6.47-3.15-11.78-10.28-11.78h-7.8l-15.09,70.49h7.8c7.13,0,14.1-5.14,15.43-11.61l9.95-47.11Zm36.16,56.73c-1.99,9.12-13.6,16.59-26.04,16.59H28.56c-3.48,0-5.81-2.82-4.98-6.3L42,27.29c.66-3.32,4.15-6.14,7.63-6.14h88.08c12.44,0,20.9,7.46,19.07,16.59l-14.1,66.35Z"/><path class="cls-50" d="M232.74,86.01l-.33-42.13-18.08,42.13h18.41Zm47.6,34.67h-40.8c-3.48,0-6.8-2.82-6.8-6.14v-13.77h-24.55l-6.14,13.77c-1.33,3.32-5.64,6.14-8.96,6.14h-40.97c-2.82,0-4.15-2.32-3.48-5.14,.17-.83,.5-1.66,.99-2.49L196.08,27.29c1.66-3.15,5.81-6.14,9.29-6.14h64.03c3.48,0,6.14,2.99,6.47,6.14l10.12,85.75c.17,1,.17,1.99-.17,2.99-.5,2.82-2.65,4.64-5.47,4.64Z"/><path class="cls-50" d="M405.08,35.58c-.83,3.48-4.31,6.3-7.63,6.3h-28.03l-15.26,72.48c-.83,3.48-4.15,6.3-7.63,6.3h-36.66c-3.48,0-5.64-2.82-4.81-6.3l15.26-72.48h-29.03c-3.48,0-5.64-2.82-4.81-6.3l1.66-8.29c.66-3.32,4.15-6.14,7.63-6.14h106.16c3.32,0,5.47,2.82,4.81,6.14l-1.66,8.29Z"/><path class="cls-50" d="M528.65,35.58c-.83,3.48-4.31,6.3-7.63,6.3h-28.03l-15.26,72.48c-.83,3.48-4.15,6.3-7.63,6.3h-36.66c-3.48,0-5.64-2.82-4.81-6.3l15.26-72.48h-29.03c-3.48,0-5.64-2.82-4.81-6.3l1.66-8.29c.66-3.32,4.15-6.14,7.63-6.14h106.16c3.32,0,5.47,2.82,4.81,6.14l-1.66,8.29Z"/><path class="cls-50" d="M579.07,86.01l-.33-42.13-18.08,42.13h18.41Zm47.6,34.67h-40.8c-3.48,0-6.8-2.82-6.8-6.14v-13.77h-24.55l-6.14,13.77c-1.33,3.32-5.64,6.14-8.96,6.14h-40.97c-2.82,0-4.15-2.32-3.48-5.14,.17-.83,.5-1.66,.99-2.49l46.44-85.75c1.66-3.15,5.81-6.14,9.29-6.14h64.03c3.48,0,6.14,2.99,6.47,6.14l10.12,85.75c.17,1,.17,1.99-.17,2.99-.5,2.82-2.65,4.64-5.47,4.64Z"/></g><g><path class="cls-35" d="M106.09,46.97c1.49-6.47-3.15-11.78-10.28-11.78h-7.8l-15.09,70.49h7.8c7.13,0,14.1-5.14,15.43-11.61l9.95-47.11Zm36.16,56.73c-1.99,9.12-13.6,16.59-26.04,16.59H28.13c-3.48,0-5.81-2.82-4.98-6.3L41.56,26.9c.66-3.32,4.15-6.14,7.63-6.14h88.08c12.44,0,20.9,7.46,19.07,16.59l-14.1,66.35Z"/><path class="cls-35" d="M232.31,85.62l-.33-42.13-18.08,42.13h18.41Zm47.6,34.67h-40.8c-3.48,0-6.8-2.82-6.8-6.14v-13.77h-24.55l-6.14,13.77c-1.33,3.32-5.64,6.14-8.96,6.14h-40.97c-2.82,0-4.15-2.32-3.48-5.14,.17-.83,.5-1.66,.99-2.49L195.65,26.9c1.66-3.15,5.81-6.14,9.29-6.14h64.03c3.48,0,6.14,2.99,6.47,6.14l10.12,85.75c.17,1,.17,1.99-.17,2.99-.5,2.82-2.65,4.64-5.47,4.64Z"/><path class="cls-35" d="M404.65,35.2c-.83,3.48-4.31,6.3-7.63,6.3h-28.03l-15.26,72.48c-.83,3.48-4.15,6.3-7.63,6.3h-36.66c-3.48,0-5.64-2.82-4.81-6.3l15.26-72.48h-29.03c-3.48,0-5.64-2.82-4.81-6.3l1.66-8.29c.66-3.32,4.15-6.14,7.63-6.14h106.16c3.32,0,5.47,2.82,4.81,6.14l-1.66,8.29Z"/><path class="cls-35" d="M528.22,35.2c-.83,3.48-4.31,6.3-7.63,6.3h-28.03l-15.26,72.48c-.83,3.48-4.15,6.3-7.63,6.3h-36.66c-3.48,0-5.64-2.82-4.81-6.3l15.26-72.48h-29.03c-3.48,0-5.64-2.82-4.81-6.3l1.66-8.29c.66-3.32,4.15-6.14,7.63-6.14h106.16c3.32,0,5.47,2.82,4.81,6.14l-1.66,8.29Z"/><path class="cls-35" d="M578.64,85.62l-.33-42.13-18.08,42.13h18.41Zm47.6,34.67h-40.8c-3.48,0-6.8-2.82-6.8-6.14v-13.77h-24.55l-6.14,13.77c-1.33,3.32-5.64,6.14-8.96,6.14h-40.97c-2.82,0-4.15-2.32-3.48-5.14,.17-.83,.5-1.66,.99-2.49l46.44-85.75c1.66-3.15,5.81-6.14,9.29-6.14h64.03c3.48,0,6.14,2.99,6.47,6.14l10.12,85.75c.17,1,.17,1.99-.17,2.99-.5,2.82-2.65,4.64-5.47,4.64Z"/></g><g><path class="cls-17" d="M105.66,46.59c1.49-6.47-3.15-11.78-10.28-11.78h-7.8l-15.09,70.49h7.8c7.13,0,14.1-5.14,15.43-11.61l9.95-47.11Zm36.16,56.73c-1.99,9.12-13.6,16.59-26.04,16.59H27.7c-3.48,0-5.81-2.82-4.98-6.3L41.13,26.52c.66-3.32,4.15-6.14,7.63-6.14h88.08c12.44,0,20.9,7.46,19.07,16.59l-14.1,66.35Z"/><path class="cls-17" d="M231.88,85.24l-.33-42.13-18.08,42.13h18.41Zm47.6,34.67h-40.8c-3.48,0-6.8-2.82-6.8-6.14v-13.77h-24.55l-6.14,13.77c-1.33,3.32-5.64,6.14-8.96,6.14h-40.97c-2.82,0-4.15-2.32-3.48-5.14,.17-.83,.5-1.66,.99-2.49L195.22,26.52c1.66-3.15,5.81-6.14,9.29-6.14h64.03c3.48,0,6.14,2.99,6.47,6.14l10.12,85.75c.17,1,.17,1.99-.17,2.99-.5,2.82-2.65,4.64-5.47,4.64Z"/><path class="cls-17" d="M404.21,34.81c-.83,3.48-4.31,6.3-7.63,6.3h-28.03l-15.26,72.48c-.83,3.48-4.15,6.3-7.63,6.3h-36.66c-3.48,0-5.64-2.82-4.81-6.3l15.26-72.48h-29.03c-3.48,0-5.64-2.82-4.81-6.3l1.66-8.29c.66-3.32,4.15-6.14,7.63-6.14h106.16c3.32,0,5.47,2.82,4.81,6.14l-1.66,8.29Z"/><path class="cls-17" d="M527.78,34.81c-.83,3.48-4.31,6.3-7.63,6.3h-28.03l-15.26,72.48c-.83,3.48-4.15,6.3-7.63,6.3h-36.66c-3.48,0-5.64-2.82-4.81-6.3l15.26-72.48h-29.03c-3.48,0-5.64-2.82-4.81-6.3l1.66-8.29c.66-3.32,4.15-6.14,7.63-6.14h106.16c3.32,0,5.47,2.82,4.81,6.14l-1.66,8.29Z"/><path class="cls-17" d="M578.21,85.24l-.33-42.13-18.08,42.13h18.41Zm47.6,34.67h-40.8c-3.48,0-6.8-2.82-6.8-6.14v-13.77h-24.55l-6.14,13.77c-1.33,3.32-5.64,6.14-8.96,6.14h-40.97c-2.82,0-4.15-2.32-3.48-5.14,.17-.83,.5-1.66,.99-2.49l46.44-85.75c1.66-3.15,5.81-6.14,9.29-6.14h64.03c3.48,0,6.14,2.99,6.47,6.14l10.12,85.75c.17,1,.17,1.99-.17,2.99-.5,2.82-2.65,4.64-5.47,4.64Z"/></g><g><path class="cls-39" d="M105.23,46.2c1.49-6.47-3.15-11.78-10.28-11.78h-7.8l-15.09,70.49h7.8c7.13,0,14.1-5.14,15.43-11.61l9.95-47.11Zm36.16,56.73c-1.99,9.12-13.6,16.59-26.04,16.59H27.27c-3.48,0-5.81-2.82-4.98-6.3L40.7,26.13c.66-3.32,4.15-6.14,7.63-6.14h88.08c12.44,0,20.9,7.46,19.07,16.59l-14.1,66.35Z"/><path class="cls-39" d="M231.45,84.85l-.33-42.13-18.08,42.13h18.41Zm47.6,34.67h-40.8c-3.48,0-6.8-2.82-6.8-6.14v-13.77h-24.55l-6.14,13.77c-1.33,3.32-5.64,6.14-8.96,6.14h-40.97c-2.82,0-4.15-2.32-3.48-5.14,.17-.83,.5-1.66,.99-2.49L194.79,26.13c1.66-3.15,5.81-6.14,9.29-6.14h64.03c3.48,0,6.14,2.99,6.47,6.14l10.12,85.75c.17,1,.17,1.99-.17,2.99-.5,2.82-2.65,4.64-5.47,4.64Z"/><path class="cls-39" d="M403.78,34.43c-.83,3.48-4.31,6.3-7.63,6.3h-28.03l-15.26,72.48c-.83,3.48-4.15,6.3-7.63,6.3h-36.66c-3.48,0-5.64-2.82-4.81-6.3l15.26-72.48h-29.03c-3.48,0-5.64-2.82-4.81-6.3l1.66-8.29c.66-3.32,4.15-6.14,7.63-6.14h106.16c3.32,0,5.47,2.82,4.81,6.14l-1.66,8.29Z"/><path class="cls-39" d="M527.35,34.43c-.83,3.48-4.31,6.3-7.63,6.3h-28.03l-15.26,72.48c-.83,3.48-4.15,6.3-7.63,6.3h-36.66c-3.48,0-5.64-2.82-4.81-6.3l15.26-72.48h-29.03c-3.48,0-5.64-2.82-4.81-6.3l1.66-8.29c.66-3.32,4.15-6.14,7.63-6.14h106.16c3.32,0,5.47,2.82,4.81,6.14l-1.66,8.29Z"/><path class="cls-39" d="M577.78,84.85l-.33-42.13-18.08,42.13h18.41Zm47.6,34.67h-40.8c-3.48,0-6.8-2.82-6.8-6.14v-13.77h-24.55l-6.14,13.77c-1.33,3.32-5.64,6.14-8.96,6.14h-40.97c-2.82,0-4.15-2.32-3.48-5.14,.17-.83,.5-1.66,.99-2.49l46.44-85.75c1.66-3.15,5.81-6.14,9.29-6.14h64.03c3.48,0,6.14,2.99,6.47,6.14l10.12,85.75c.17,1,.17,1.99-.17,2.99-.5,2.82-2.65,4.64-5.47,4.64Z"/></g><g><path class="cls-12" d="M104.79,45.82c1.49-6.47-3.15-11.78-10.28-11.78h-7.8l-15.09,70.49h7.8c7.13,0,14.1-5.14,15.43-11.61l9.95-47.11Zm36.16,56.73c-1.99,9.12-13.6,16.59-26.04,16.59H26.84c-3.48,0-5.81-2.82-4.98-6.3L40.27,25.75c.66-3.32,4.15-6.14,7.63-6.14h88.08c12.44,0,20.9,7.46,19.07,16.59l-14.1,66.35Z"/><path class="cls-12" d="M231.02,84.47l-.33-42.13-18.08,42.13h18.41Zm47.6,34.67h-40.8c-3.48,0-6.8-2.82-6.8-6.14v-13.77h-24.55l-6.14,13.77c-1.33,3.32-5.64,6.14-8.96,6.14h-40.97c-2.82,0-4.15-2.32-3.48-5.14,.17-.83,.5-1.66,.99-2.49L194.36,25.75c1.66-3.15,5.81-6.14,9.29-6.14h64.03c3.48,0,6.14,2.99,6.47,6.14l10.12,85.75c.17,1,.17,1.99-.17,2.99-.5,2.82-2.65,4.64-5.47,4.64Z"/><path class="cls-12" d="M403.35,34.04c-.83,3.48-4.31,6.3-7.63,6.3h-28.03l-15.26,72.48c-.83,3.48-4.15,6.3-7.63,6.3h-36.66c-3.48,0-5.64-2.82-4.81-6.3l15.26-72.48h-29.03c-3.48,0-5.64-2.82-4.81-6.3l1.66-8.29c.66-3.32,4.15-6.14,7.63-6.14h106.16c3.32,0,5.47,2.82,4.81,6.14l-1.66,8.29Z"/><path class="cls-12" d="M526.92,34.04c-.83,3.48-4.31,6.3-7.63,6.3h-28.03l-15.26,72.48c-.83,3.48-4.15,6.3-7.63,6.3h-36.66c-3.48,0-5.64-2.82-4.81-6.3l15.26-72.48h-29.03c-3.48,0-5.64-2.82-4.81-6.3l1.66-8.29c.66-3.32,4.15-6.14,7.63-6.14h106.16c3.32,0,5.47,2.82,4.81,6.14l-1.66,8.29Z"/><path class="cls-12" d="M577.35,84.47l-.33-42.13-18.08,42.13h18.41Zm47.6,34.67h-40.8c-3.48,0-6.8-2.82-6.8-6.14v-13.77h-24.55l-6.14,13.77c-1.33,3.32-5.64,6.14-8.96,6.14h-40.97c-2.82,0-4.15-2.32-3.48-5.14,.17-.83,.5-1.66,.99-2.49l46.44-85.75c1.66-3.15,5.81-6.14,9.29-6.14h64.03c3.48,0,6.14,2.99,6.47,6.14l10.12,85.75c.17,1,.17,1.99-.17,2.99-.5,2.82-2.65,4.64-5.47,4.64Z"/></g><g><path class="cls-44" d="M104.36,45.43c1.49-6.47-3.15-11.78-10.28-11.78h-7.8l-15.09,70.49h7.8c7.13,0,14.1-5.14,15.43-11.61l9.95-47.11Zm36.16,56.73c-1.99,9.12-13.6,16.59-26.04,16.59H26.4c-3.48,0-5.81-2.82-4.98-6.3L39.84,25.36c.66-3.32,4.15-6.14,7.63-6.14h88.08c12.44,0,20.9,7.46,19.07,16.59l-14.1,66.35Z"/><path class="cls-44" d="M230.59,84.08l-.33-42.13-18.08,42.13h18.41Zm47.6,34.67h-40.8c-3.48,0-6.8-2.82-6.8-6.14v-13.77h-24.55l-6.14,13.77c-1.33,3.32-5.64,6.14-8.96,6.14h-40.97c-2.82,0-4.15-2.32-3.48-5.14,.17-.83,.5-1.66,.99-2.49L193.93,25.36c1.66-3.15,5.81-6.14,9.29-6.14h64.03c3.48,0,6.14,2.99,6.47,6.14l10.12,85.75c.17,1,.17,1.99-.17,2.99-.5,2.82-2.65,4.64-5.47,4.64Z"/><path class="cls-44" d="M402.92,33.66c-.83,3.48-4.31,6.3-7.63,6.3h-28.03l-15.26,72.48c-.83,3.48-4.15,6.3-7.63,6.3h-36.66c-3.48,0-5.64-2.82-4.81-6.3l15.26-72.48h-29.03c-3.48,0-5.64-2.82-4.81-6.3l1.66-8.29c.66-3.32,4.15-6.14,7.63-6.14h106.16c3.32,0,5.47,2.82,4.81,6.14l-1.66,8.29Z"/><path class="cls-44" d="M526.49,33.66c-.83,3.48-4.31,6.3-7.63,6.3h-28.03l-15.26,72.48c-.83,3.48-4.15,6.3-7.63,6.3h-36.66c-3.48,0-5.64-2.82-4.81-6.3l15.26-72.48h-29.03c-3.48,0-5.64-2.82-4.81-6.3l1.66-8.29c.66-3.32,4.15-6.14,7.63-6.14h106.16c3.32,0,5.47,2.82,4.81,6.14l-1.66,8.29Z"/><path class="cls-44" d="M576.91,84.08l-.33-42.13-18.08,42.13h18.41Zm47.6,34.67h-40.8c-3.48,0-6.8-2.82-6.8-6.14v-13.77h-24.55l-6.14,13.77c-1.33,3.32-5.64,6.14-8.96,6.14h-40.97c-2.82,0-4.15-2.32-3.48-5.14,.17-.83,.5-1.66,.99-2.49l46.44-85.75c1.66-3.15,5.81-6.14,9.29-6.14h64.03c3.48,0,6.14,2.99,6.47,6.14l10.12,85.75c.17,1,.17,1.99-.17,2.99-.5,2.82-2.65,4.64-5.47,4.64Z"/></g><g><path class="cls-43" d="M103.93,45.05c1.49-6.47-3.15-11.78-10.28-11.78h-7.8l-15.09,70.49h7.8c7.13,0,14.1-5.14,15.43-11.61l9.95-47.11Zm36.16,56.73c-1.99,9.12-13.6,16.59-26.04,16.59H25.97c-3.48,0-5.81-2.82-4.98-6.3L39.41,24.98c.66-3.32,4.15-6.14,7.63-6.14h88.08c12.44,0,20.9,7.46,19.07,16.59l-14.1,66.35Z"/><path class="cls-43" d="M230.15,83.7l-.33-42.13-18.08,42.13h18.41Zm47.6,34.67h-40.8c-3.48,0-6.8-2.82-6.8-6.14v-13.77h-24.55l-6.14,13.77c-1.33,3.32-5.64,6.14-8.96,6.14h-40.97c-2.82,0-4.15-2.32-3.48-5.14,.17-.83,.5-1.66,.99-2.49L193.5,24.98c1.66-3.15,5.81-6.14,9.29-6.14h64.03c3.48,0,6.14,2.99,6.47,6.14l10.12,85.75c.17,1,.17,1.99-.17,2.99-.5,2.82-2.65,4.64-5.47,4.64Z"/><path class="cls-43" d="M402.49,33.27c-.83,3.48-4.31,6.3-7.63,6.3h-28.03l-15.26,72.48c-.83,3.48-4.15,6.3-7.63,6.3h-36.66c-3.48,0-5.64-2.82-4.81-6.3l15.26-72.48h-29.03c-3.48,0-5.64-2.82-4.81-6.3l1.66-8.29c.66-3.32,4.15-6.14,7.63-6.14h106.16c3.32,0,5.47,2.82,4.81,6.14l-1.66,8.29Z"/><path class="cls-43" d="M526.06,33.27c-.83,3.48-4.31,6.3-7.63,6.3h-28.03l-15.26,72.48c-.83,3.48-4.15,6.3-7.63,6.3h-36.66c-3.48,0-5.64-2.82-4.81-6.3l15.26-72.48h-29.03c-3.48,0-5.64-2.82-4.81-6.3l1.66-8.29c.66-3.32,4.15-6.14,7.63-6.14h106.16c3.32,0,5.47,2.82,4.81,6.14l-1.66,8.29Z"/><path class="cls-43" d="M576.48,83.7l-.33-42.13-18.08,42.13h18.41Zm47.6,34.67h-40.8c-3.48,0-6.8-2.82-6.8-6.14v-13.77h-24.55l-6.14,13.77c-1.33,3.32-5.64,6.14-8.96,6.14h-40.97c-2.82,0-4.15-2.32-3.48-5.14,.17-.83,.5-1.66,.99-2.49l46.44-85.75c1.66-3.15,5.81-6.14,9.29-6.14h64.03c3.48,0,6.14,2.99,6.47,6.14l10.12,85.75c.17,1,.17,1.99-.17,2.99-.5,2.82-2.65,4.64-5.47,4.64Z"/></g><g><path class="cls-42" d="M103.5,44.66c1.49-6.47-3.15-11.78-10.28-11.78h-7.8l-15.09,70.49h7.8c7.13,0,14.1-5.14,15.43-11.61l9.95-47.11Zm36.16,56.73c-1.99,9.12-13.6,16.59-26.04,16.59H25.54c-3.48,0-5.81-2.82-4.98-6.3L38.98,24.59c.66-3.32,4.15-6.14,7.63-6.14h88.08c12.44,0,20.9,7.46,19.07,16.59l-14.1,66.35Z"/><path class="cls-42" d="M229.72,83.31l-.33-42.13-18.08,42.13h18.41Zm47.6,34.67h-40.8c-3.48,0-6.8-2.82-6.8-6.14v-13.77h-24.55l-6.14,13.77c-1.33,3.32-5.64,6.14-8.96,6.14h-40.97c-2.82,0-4.15-2.32-3.48-5.14,.17-.83,.5-1.66,.99-2.49L193.07,24.59c1.66-3.15,5.81-6.14,9.29-6.14h64.03c3.48,0,6.14,2.99,6.47,6.14l10.12,85.75c.17,1,.17,1.99-.17,2.99-.5,2.82-2.65,4.64-5.47,4.64Z"/><path class="cls-42" d="M402.06,32.89c-.83,3.48-4.31,6.3-7.63,6.3h-28.03l-15.26,72.48c-.83,3.48-4.15,6.3-7.63,6.3h-36.66c-3.48,0-5.64-2.82-4.81-6.3l15.26-72.48h-29.03c-3.48,0-5.64-2.82-4.81-6.3l1.66-8.29c.66-3.32,4.15-6.14,7.63-6.14h106.16c3.32,0,5.47,2.82,4.81,6.14l-1.66,8.29Z"/><path class="cls-42" d="M525.63,32.89c-.83,3.48-4.31,6.3-7.63,6.3h-28.03l-15.26,72.48c-.83,3.48-4.15,6.3-7.63,6.3h-36.66c-3.48,0-5.64-2.82-4.81-6.3l15.26-72.48h-29.03c-3.48,0-5.64-2.82-4.81-6.3l1.66-8.29c.66-3.32,4.15-6.14,7.63-6.14h106.16c3.32,0,5.47,2.82,4.81,6.14l-1.66,8.29Z"/><path class="cls-42" d="M576.05,83.31l-.33-42.13-18.08,42.13h18.41Zm47.6,34.67h-40.8c-3.48,0-6.8-2.82-6.8-6.14v-13.77h-24.55l-6.14,13.77c-1.33,3.32-5.64,6.14-8.96,6.14h-40.97c-2.82,0-4.15-2.32-3.48-5.14,.17-.83,.5-1.66,.99-2.49l46.44-85.75c1.66-3.15,5.81-6.14,9.29-6.14h64.03c3.48,0,6.14,2.99,6.47,6.14l10.12,85.75c.17,1,.17,1.99-.17,2.99-.5,2.82-2.65,4.64-5.47,4.64Z"/></g><g><path class="cls-49" d="M103.07,44.28c1.49-6.47-3.15-11.78-10.28-11.78h-7.8l-15.09,70.49h7.8c7.13,0,14.1-5.14,15.43-11.61l9.95-47.11Zm36.16,56.73c-1.99,9.12-13.6,16.59-26.04,16.59H25.11c-3.48,0-5.81-2.82-4.98-6.3L38.55,24.21c.66-3.32,4.15-6.14,7.63-6.14h88.08c12.44,0,20.9,7.46,19.07,16.59l-14.1,66.35Z"/><path class="cls-49" d="M229.29,82.93l-.33-42.13-18.08,42.13h18.41Zm47.6,34.67h-40.8c-3.48,0-6.8-2.82-6.8-6.14v-13.77h-24.55l-6.14,13.77c-1.33,3.32-5.64,6.14-8.96,6.14h-40.97c-2.82,0-4.15-2.32-3.48-5.14,.17-.83,.5-1.66,.99-2.49L192.63,24.21c1.66-3.15,5.81-6.14,9.29-6.14h64.03c3.48,0,6.14,2.99,6.47,6.14l10.12,85.75c.17,1,.17,1.99-.17,2.99-.5,2.82-2.65,4.64-5.47,4.64Z"/><path class="cls-49" d="M401.63,32.5c-.83,3.48-4.31,6.3-7.63,6.3h-28.03l-15.26,72.48c-.83,3.48-4.15,6.3-7.63,6.3h-36.66c-3.48,0-5.64-2.82-4.81-6.3l15.26-72.48h-29.03c-3.48,0-5.64-2.82-4.81-6.3l1.66-8.29c.66-3.32,4.15-6.14,7.63-6.14h106.16c3.32,0,5.47,2.82,4.81,6.14l-1.66,8.29Z"/><path class="cls-49" d="M525.2,32.5c-.83,3.48-4.31,6.3-7.63,6.3h-28.03l-15.26,72.48c-.83,3.48-4.15,6.3-7.63,6.3h-36.66c-3.48,0-5.64-2.82-4.81-6.3l15.26-72.48h-29.03c-3.48,0-5.64-2.82-4.81-6.3l1.66-8.29c.66-3.32,4.15-6.14,7.63-6.14h106.16c3.32,0,5.47,2.82,4.81,6.14l-1.66,8.29Z"/><path class="cls-49" d="M575.62,82.93l-.33-42.13-18.08,42.13h18.41Zm47.6,34.67h-40.8c-3.48,0-6.8-2.82-6.8-6.14v-13.77h-24.55l-6.14,13.77c-1.33,3.32-5.64,6.14-8.96,6.14h-40.97c-2.82,0-4.15-2.32-3.48-5.14,.17-.83,.5-1.66,.99-2.49l46.44-85.75c1.66-3.15,5.81-6.14,9.29-6.14h64.03c3.48,0,6.14,2.99,6.47,6.14l10.12,85.75c.17,1,.17,1.99-.17,2.99-.5,2.82-2.65,4.64-5.47,4.64Z"/></g><g><path class="cls-36" d="M102.64,43.89c1.49-6.47-3.15-11.78-10.28-11.78h-7.8l-15.09,70.49h7.8c7.13,0,14.1-5.14,15.43-11.61l9.95-47.11Zm36.16,56.73c-1.99,9.12-13.6,16.59-26.04,16.59H24.68c-3.48,0-5.81-2.82-4.98-6.3L38.11,23.82c.66-3.32,4.15-6.14,7.63-6.14h88.08c12.44,0,20.9,7.46,19.07,16.59l-14.1,66.35Z"/><path class="cls-36" d="M228.86,82.54l-.33-42.13-18.08,42.13h18.41Zm47.6,34.67h-40.8c-3.48,0-6.8-2.82-6.8-6.14v-13.77h-24.55l-6.14,13.77c-1.33,3.32-5.64,6.14-8.96,6.14h-40.97c-2.82,0-4.15-2.32-3.48-5.14,.17-.83,.5-1.66,.99-2.49L192.2,23.82c1.66-3.15,5.81-6.14,9.29-6.14h64.03c3.48,0,6.14,2.99,6.47,6.14l10.12,85.75c.17,1,.17,1.99-.17,2.99-.5,2.82-2.65,4.64-5.47,4.64Z"/><path class="cls-36" d="M401.2,32.12c-.83,3.48-4.31,6.3-7.63,6.3h-28.03l-15.26,72.48c-.83,3.48-4.15,6.3-7.63,6.3h-36.66c-3.48,0-5.64-2.82-4.81-6.3l15.26-72.48h-29.03c-3.48,0-5.64-2.82-4.81-6.3l1.66-8.29c.66-3.32,4.15-6.14,7.63-6.14h106.16c3.32,0,5.47,2.82,4.81,6.14l-1.66,8.29Z"/><path class="cls-36" d="M524.77,32.12c-.83,3.48-4.31,6.3-7.63,6.3h-28.03l-15.26,72.48c-.83,3.48-4.15,6.3-7.63,6.3h-36.66c-3.48,0-5.64-2.82-4.81-6.3l15.26-72.48h-29.03c-3.48,0-5.64-2.82-4.81-6.3l1.66-8.29c.66-3.32,4.15-6.14,7.63-6.14h106.16c3.32,0,5.47,2.82,4.81,6.14l-1.66,8.29Z"/><path class="cls-36" d="M575.19,82.54l-.33-42.13-18.08,42.13h18.41Zm47.6,34.67h-40.8c-3.48,0-6.8-2.82-6.8-6.14v-13.77h-24.55l-6.14,13.77c-1.33,3.32-5.64,6.14-8.96,6.14h-40.97c-2.82,0-4.15-2.32-3.48-5.14,.17-.83,.5-1.66,.99-2.49l46.44-85.75c1.66-3.15,5.81-6.14,9.29-6.14h64.03c3.48,0,6.14,2.99,6.47,6.14l10.12,85.75c.17,1,.17,1.99-.17,2.99-.5,2.82-2.65,4.64-5.47,4.64Z"/></g><g><path class="cls-30" d="M102.21,43.51c1.49-6.47-3.15-11.78-10.28-11.78h-7.8l-15.09,70.49h7.8c7.13,0,14.1-5.14,15.43-11.61l9.95-47.11Zm36.16,56.73c-1.99,9.12-13.6,16.59-26.04,16.59H24.25c-3.48,0-5.81-2.82-4.98-6.3L37.68,23.44c.66-3.32,4.15-6.14,7.63-6.14h88.08c12.44,0,20.9,7.46,19.07,16.59l-14.1,66.35Z"/><path class="cls-30" d="M228.43,82.16l-.33-42.13-18.08,42.13h18.41Zm47.6,34.67h-40.8c-3.48,0-6.8-2.82-6.8-6.14v-13.77h-24.55l-6.14,13.77c-1.33,3.32-5.64,6.14-8.96,6.14h-40.97c-2.82,0-4.15-2.32-3.48-5.14,.17-.83,.5-1.66,.99-2.49L191.77,23.44c1.66-3.15,5.81-6.14,9.29-6.14h64.03c3.48,0,6.14,2.99,6.47,6.14l10.12,85.75c.17,1,.17,1.99-.17,2.99-.5,2.82-2.65,4.64-5.47,4.64Z"/><path class="cls-30" d="M400.76,31.73c-.83,3.48-4.31,6.3-7.63,6.3h-28.03l-15.26,72.48c-.83,3.48-4.15,6.3-7.63,6.3h-36.66c-3.48,0-5.64-2.82-4.81-6.3l15.26-72.48h-29.03c-3.48,0-5.64-2.82-4.81-6.3l1.66-8.29c.66-3.32,4.15-6.14,7.63-6.14h106.16c3.32,0,5.47,2.82,4.81,6.14l-1.66,8.29Z"/><path class="cls-30" d="M524.33,31.73c-.83,3.48-4.31,6.3-7.63,6.3h-28.03l-15.26,72.48c-.83,3.48-4.15,6.3-7.63,6.3h-36.66c-3.48,0-5.64-2.82-4.81-6.3l15.26-72.48h-29.03c-3.48,0-5.64-2.82-4.81-6.3l1.66-8.29c.66-3.32,4.15-6.14,7.63-6.14h106.16c3.32,0,5.47,2.82,4.81,6.14l-1.66,8.29Z"/><path class="cls-30" d="M574.76,82.16l-.33-42.13-18.08,42.13h18.41Zm47.6,34.67h-40.8c-3.48,0-6.8-2.82-6.8-6.14v-13.77h-24.55l-6.14,13.77c-1.33,3.32-5.64,6.14-8.96,6.14h-40.97c-2.82,0-4.15-2.32-3.48-5.14,.17-.83,.5-1.66,.99-2.49l46.44-85.75c1.66-3.15,5.81-6.14,9.29-6.14h64.03c3.48,0,6.14,2.99,6.47,6.14l10.12,85.75c.17,1,.17,1.99-.17,2.99-.5,2.82-2.65,4.64-5.47,4.64Z"/></g><g><path class="cls-33" d="M101.78,43.12c1.49-6.47-3.15-11.78-10.28-11.78h-7.8l-15.09,70.49h7.8c7.13,0,14.1-5.14,15.43-11.61l9.95-47.11Zm36.16,56.73c-1.99,9.12-13.6,16.59-26.04,16.59H23.82c-3.48,0-5.81-2.82-4.98-6.3L37.25,23.05c.66-3.32,4.15-6.14,7.63-6.14h88.08c12.44,0,20.9,7.46,19.07,16.59l-14.1,66.35Z"/><path class="cls-33" d="M228,81.77l-.33-42.13-18.08,42.13h18.41Zm47.6,34.67h-40.8c-3.48,0-6.8-2.82-6.8-6.14v-13.77h-24.55l-6.14,13.77c-1.33,3.32-5.64,6.14-8.96,6.14h-40.97c-2.82,0-4.15-2.32-3.48-5.14,.17-.83,.5-1.66,.99-2.49L191.34,23.05c1.66-3.15,5.81-6.14,9.29-6.14h64.03c3.48,0,6.14,2.99,6.47,6.14l10.12,85.75c.17,1,.17,1.99-.17,2.99-.5,2.82-2.65,4.64-5.47,4.64Z"/><path class="cls-33" d="M400.33,31.35c-.83,3.48-4.31,6.3-7.63,6.3h-28.03l-15.26,72.48c-.83,3.48-4.15,6.3-7.63,6.3h-36.66c-3.48,0-5.64-2.82-4.81-6.3l15.26-72.48h-29.03c-3.48,0-5.64-2.82-4.81-6.3l1.66-8.29c.66-3.32,4.15-6.14,7.63-6.14h106.16c3.32,0,5.47,2.82,4.81,6.14l-1.66,8.29Z"/><path class="cls-33" d="M523.9,31.35c-.83,3.48-4.31,6.3-7.63,6.3h-28.03l-15.26,72.48c-.83,3.48-4.15,6.3-7.63,6.3h-36.66c-3.48,0-5.64-2.82-4.81-6.3l15.26-72.48h-29.03c-3.48,0-5.64-2.82-4.81-6.3l1.66-8.29c.66-3.32,4.15-6.14,7.63-6.14h106.16c3.32,0,5.47,2.82,4.81,6.14l-1.66,8.29Z"/><path class="cls-33" d="M574.33,81.77l-.33-42.13-18.08,42.13h18.41Zm47.6,34.67h-40.8c-3.48,0-6.8-2.82-6.8-6.14v-13.77h-24.55l-6.14,13.77c-1.33,3.32-5.64,6.14-8.96,6.14h-40.97c-2.82,0-4.15-2.32-3.48-5.14,.17-.83,.5-1.66,.99-2.49l46.44-85.75c1.66-3.15,5.81-6.14,9.29-6.14h64.03c3.48,0,6.14,2.99,6.47,6.14l10.12,85.75c.17,1,.17,1.99-.17,2.99-.5,2.82-2.65,4.64-5.47,4.64Z"/></g><g><path class="cls-32" d="M101.34,42.74c1.49-6.47-3.15-11.78-10.28-11.78h-7.8l-15.09,70.49h7.8c7.13,0,14.1-5.14,15.43-11.61l9.95-47.11Zm36.16,56.73c-1.99,9.12-13.6,16.59-26.04,16.59H23.39c-3.48,0-5.81-2.82-4.98-6.3L36.82,22.67c.66-3.32,4.15-6.14,7.63-6.14h88.08c12.44,0,20.9,7.46,19.07,16.59l-14.1,66.35Z"/><path class="cls-32" d="M227.57,81.39l-.33-42.13-18.08,42.13h18.41Zm47.6,34.67h-40.8c-3.48,0-6.8-2.82-6.8-6.14v-13.77h-24.55l-6.14,13.77c-1.33,3.32-5.64,6.14-8.96,6.14h-40.97c-2.82,0-4.15-2.32-3.48-5.14,.17-.83,.5-1.66,.99-2.49L190.91,22.67c1.66-3.15,5.81-6.14,9.29-6.14h64.03c3.48,0,6.14,2.99,6.47,6.14l10.12,85.75c.17,1,.17,1.99-.17,2.99-.5,2.82-2.65,4.64-5.47,4.64Z"/><path class="cls-32" d="M399.9,30.96c-.83,3.48-4.31,6.3-7.63,6.3h-28.03l-15.26,72.48c-.83,3.48-4.15,6.3-7.63,6.3h-36.66c-3.48,0-5.64-2.82-4.81-6.3l15.26-72.48h-29.03c-3.48,0-5.64-2.82-4.81-6.3l1.66-8.29c.66-3.32,4.15-6.14,7.63-6.14h106.16c3.32,0,5.47,2.82,4.81,6.14l-1.66,8.29Z"/><path class="cls-32" d="M523.47,30.96c-.83,3.48-4.31,6.3-7.63,6.3h-28.03l-15.26,72.48c-.83,3.48-4.15,6.3-7.63,6.3h-36.66c-3.48,0-5.64-2.82-4.81-6.3l15.26-72.48h-29.03c-3.48,0-5.64-2.82-4.81-6.3l1.66-8.29c.66-3.32,4.15-6.14,7.63-6.14h106.16c3.32,0,5.47,2.82,4.81,6.14l-1.66,8.29Z"/><path class="cls-32" d="M573.9,81.39l-.33-42.13-18.08,42.13h18.41Zm47.6,34.67h-40.8c-3.48,0-6.8-2.82-6.8-6.14v-13.77h-24.55l-6.14,13.77c-1.33,3.32-5.64,6.14-8.96,6.14h-40.97c-2.82,0-4.15-2.32-3.48-5.14,.17-.83,.5-1.66,.99-2.49l46.44-85.75c1.66-3.15,5.81-6.14,9.29-6.14h64.03c3.48,0,6.14,2.99,6.47,6.14l10.12,85.75c.17,1,.17,1.99-.17,2.99-.5,2.82-2.65,4.64-5.47,4.64Z"/></g><g><path class="cls-38" d="M100.91,42.35c1.49-6.47-3.15-11.78-10.28-11.78h-7.8l-15.09,70.49h7.8c7.13,0,14.1-5.14,15.43-11.61l9.95-47.11Zm36.16,56.73c-1.99,9.12-13.6,16.59-26.04,16.59H22.95c-3.48,0-5.81-2.82-4.98-6.3L36.39,22.28c.66-3.32,4.15-6.14,7.63-6.14h88.08c12.44,0,20.9,7.46,19.07,16.59l-14.1,66.35Z"/><path class="cls-38" d="M227.14,81l-.33-42.13-18.08,42.13h18.41Zm47.6,34.67h-40.8c-3.48,0-6.8-2.82-6.8-6.14v-13.77h-24.55l-6.14,13.77c-1.33,3.32-5.64,6.14-8.96,6.14h-40.97c-2.82,0-4.15-2.32-3.48-5.14,.17-.83,.5-1.66,.99-2.49L190.48,22.28c1.66-3.15,5.81-6.14,9.29-6.14h64.03c3.48,0,6.14,2.99,6.47,6.14l10.12,85.75c.17,1,.17,1.99-.17,2.99-.5,2.82-2.65,4.64-5.47,4.64Z"/><path class="cls-38" d="M399.47,30.58c-.83,3.48-4.31,6.3-7.63,6.3h-28.03l-15.26,72.48c-.83,3.48-4.15,6.3-7.63,6.3h-36.66c-3.48,0-5.64-2.82-4.81-6.3l15.26-72.48h-29.03c-3.48,0-5.64-2.82-4.81-6.3l1.66-8.29c.66-3.32,4.15-6.14,7.63-6.14h106.16c3.32,0,5.47,2.82,4.81,6.14l-1.66,8.29Z"/><path class="cls-38" d="M523.04,30.58c-.83,3.48-4.31,6.3-7.63,6.3h-28.03l-15.26,72.48c-.83,3.48-4.15,6.3-7.63,6.3h-36.66c-3.48,0-5.64-2.82-4.81-6.3l15.26-72.48h-29.03c-3.48,0-5.64-2.82-4.81-6.3l1.66-8.29c.66-3.32,4.15-6.14,7.63-6.14h106.16c3.32,0,5.47,2.82,4.81,6.14l-1.66,8.29Z"/><path class="cls-38" d="M573.46,81l-.33-42.13-18.08,42.13h18.41Zm47.6,34.67h-40.8c-3.48,0-6.8-2.82-6.8-6.14v-13.77h-24.55l-6.14,13.77c-1.33,3.32-5.64,6.14-8.96,6.14h-40.97c-2.82,0-4.15-2.32-3.48-5.14,.17-.83,.5-1.66,.99-2.49l46.44-85.75c1.66-3.15,5.81-6.14,9.29-6.14h64.03c3.48,0,6.14,2.99,6.47,6.14l10.12,85.75c.17,1,.17,1.99-.17,2.99-.5,2.82-2.65,4.64-5.47,4.64Z"/></g><g><path class="cls-31" d="M100.48,41.97c1.49-6.47-3.15-11.78-10.28-11.78h-7.8l-15.09,70.49h7.8c7.13,0,14.1-5.14,15.43-11.61l9.95-47.11Zm36.16,56.73c-1.99,9.12-13.6,16.59-26.04,16.59H22.52c-3.48,0-5.81-2.82-4.98-6.3L35.96,21.9c.66-3.32,4.15-6.14,7.63-6.14h88.08c12.44,0,20.9,7.46,19.07,16.59l-14.1,66.35Z"/><path class="cls-31" d="M226.7,80.62l-.33-42.13-18.08,42.13h18.41Zm47.6,34.67h-40.8c-3.48,0-6.8-2.82-6.8-6.14v-13.77h-24.55l-6.14,13.77c-1.33,3.32-5.64,6.14-8.96,6.14h-40.97c-2.82,0-4.15-2.32-3.48-5.14,.17-.83,.5-1.66,.99-2.49L190.05,21.9c1.66-3.15,5.81-6.14,9.29-6.14h64.03c3.48,0,6.14,2.99,6.47,6.14l10.12,85.75c.17,1,.17,1.99-.17,2.99-.5,2.82-2.65,4.64-5.47,4.64Z"/><path class="cls-31" d="M399.04,30.19c-.83,3.48-4.31,6.3-7.63,6.3h-28.03l-15.26,72.48c-.83,3.48-4.15,6.3-7.63,6.3h-36.66c-3.48,0-5.64-2.82-4.81-6.3l15.26-72.48h-29.03c-3.48,0-5.64-2.82-4.81-6.3l1.66-8.29c.66-3.32,4.15-6.14,7.63-6.14h106.16c3.32,0,5.47,2.82,4.81,6.14l-1.66,8.29Z"/><path class="cls-31" d="M522.61,30.19c-.83,3.48-4.31,6.3-7.63,6.3h-28.03l-15.26,72.48c-.83,3.48-4.15,6.3-7.63,6.3h-36.66c-3.48,0-5.64-2.82-4.81-6.3l15.26-72.48h-29.03c-3.48,0-5.64-2.82-4.81-6.3l1.66-8.29c.66-3.32,4.15-6.14,7.63-6.14h106.16c3.32,0,5.47,2.82,4.81,6.14l-1.66,8.29Z"/><path class="cls-31" d="M573.03,80.62l-.33-42.13-18.08,42.13h18.41Zm47.6,34.67h-40.8c-3.48,0-6.8-2.82-6.8-6.14v-13.77h-24.55l-6.14,13.77c-1.33,3.32-5.64,6.14-8.96,6.14h-40.97c-2.82,0-4.15-2.32-3.48-5.14,.17-.83,.5-1.66,.99-2.49l46.44-85.75c1.66-3.15,5.81-6.14,9.29-6.14h64.03c3.48,0,6.14,2.99,6.47,6.14l10.12,85.75c.17,1,.17,1.99-.17,2.99-.5,2.82-2.65,4.64-5.47,4.64Z"/></g><g><path class="cls-34" d="M100.05,41.58c1.49-6.47-3.15-11.78-10.28-11.78h-7.8l-15.09,70.49h7.8c7.13,0,14.1-5.14,15.43-11.61l9.95-47.11Zm36.16,56.73c-1.99,9.12-13.6,16.59-26.04,16.59H22.09c-3.48,0-5.81-2.82-4.98-6.3L35.53,21.51c.66-3.32,4.15-6.14,7.63-6.14h88.08c12.44,0,20.9,7.46,19.07,16.59l-14.1,66.35Z"/><path class="cls-34" d="M226.27,80.23l-.33-42.13-18.08,42.13h18.41Zm47.6,34.67h-40.8c-3.48,0-6.8-2.82-6.8-6.14v-13.77h-24.55l-6.14,13.77c-1.33,3.32-5.64,6.14-8.96,6.14h-40.97c-2.82,0-4.15-2.32-3.48-5.14,.17-.83,.5-1.66,.99-2.49L189.62,21.51c1.66-3.15,5.81-6.14,9.29-6.14h64.03c3.48,0,6.14,2.99,6.47,6.14l10.12,85.75c.17,1,.17,1.99-.17,2.99-.5,2.82-2.65,4.64-5.47,4.64Z"/><path class="cls-34" d="M398.61,29.81c-.83,3.48-4.31,6.3-7.63,6.3h-28.03l-15.26,72.48c-.83,3.48-4.15,6.3-7.63,6.3h-36.66c-3.48,0-5.64-2.82-4.81-6.3l15.26-72.48h-29.03c-3.48,0-5.64-2.82-4.81-6.3l1.66-8.29c.66-3.32,4.15-6.14,7.63-6.14h106.16c3.32,0,5.47,2.82,4.81,6.14l-1.66,8.29Z"/><path class="cls-34" d="M522.18,29.81c-.83,3.48-4.31,6.3-7.63,6.3h-28.03l-15.26,72.48c-.83,3.48-4.15,6.3-7.63,6.3h-36.66c-3.48,0-5.64-2.82-4.81-6.3l15.26-72.48h-29.03c-3.48,0-5.64-2.82-4.81-6.3l1.66-8.29c.66-3.32,4.15-6.14,7.63-6.14h106.16c3.32,0,5.47,2.82,4.81,6.14l-1.66,8.29Z"/><path class="cls-34" d="M572.6,80.23l-.33-42.13-18.08,42.13h18.41Zm47.6,34.67h-40.8c-3.48,0-6.8-2.82-6.8-6.14v-13.77h-24.55l-6.14,13.77c-1.33,3.32-5.64,6.14-8.96,6.14h-40.97c-2.82,0-4.15-2.32-3.48-5.14,.17-.83,.5-1.66,.99-2.49l46.44-85.75c1.66-3.15,5.81-6.14,9.29-6.14h64.03c3.48,0,6.14,2.99,6.47,6.14l10.12,85.75c.17,1,.17,1.99-.17,2.99-.5,2.82-2.65,4.64-5.47,4.64Z"/></g><g><path class="cls-1" d="M99.62,41.2c1.49-6.47-3.15-11.78-10.28-11.78h-7.8l-15.09,70.49h7.8c7.13,0,14.1-5.14,15.43-11.61l9.95-47.11Zm36.16,56.73c-1.99,9.12-13.6,16.59-26.04,16.59H21.66c-3.48,0-5.81-2.82-4.98-6.3L35.1,21.13c.66-3.32,4.15-6.14,7.63-6.14h88.08c12.44,0,20.9,7.46,19.07,16.59l-14.1,66.35Z"/><path class="cls-1" d="M225.84,79.85l-.33-42.13-18.08,42.13h18.41Zm47.6,34.67h-40.8c-3.48,0-6.8-2.82-6.8-6.14v-13.77h-24.55l-6.14,13.77c-1.33,3.32-5.64,6.14-8.96,6.14h-40.97c-2.82,0-4.15-2.32-3.48-5.14,.17-.83,.5-1.66,.99-2.49L189.18,21.13c1.66-3.15,5.81-6.14,9.29-6.14h64.03c3.48,0,6.14,2.99,6.47,6.14l10.12,85.75c.17,1,.17,1.99-.17,2.99-.5,2.82-2.65,4.64-5.47,4.64Z"/><path class="cls-1" d="M398.18,29.42c-.83,3.48-4.31,6.3-7.63,6.3h-28.03l-15.26,72.48c-.83,3.48-4.15,6.3-7.63,6.3h-36.66c-3.48,0-5.64-2.82-4.81-6.3l15.26-72.48h-29.03c-3.48,0-5.64-2.82-4.81-6.3l1.66-8.29c.66-3.32,4.15-6.14,7.63-6.14h106.16c3.32,0,5.47,2.82,4.81,6.14l-1.66,8.29Z"/><path class="cls-1" d="M521.75,29.42c-.83,3.48-4.31,6.3-7.63,6.3h-28.03l-15.26,72.48c-.83,3.48-4.15,6.3-7.63,6.3h-36.66c-3.48,0-5.64-2.82-4.81-6.3l15.26-72.48h-29.03c-3.48,0-5.64-2.82-4.81-6.3l1.66-8.29c.66-3.32,4.15-6.14,7.63-6.14h106.16c3.32,0,5.47,2.82,4.81,6.14l-1.66,8.29Z"/><path class="cls-1" d="M572.17,79.85l-.33-42.13-18.08,42.13h18.41Zm47.6,34.67h-40.8c-3.48,0-6.8-2.82-6.8-6.14v-13.77h-24.55l-6.14,13.77c-1.33,3.32-5.64,6.14-8.96,6.14h-40.97c-2.82,0-4.15-2.32-3.48-5.14,.17-.83,.5-1.66,.99-2.49l46.44-85.75c1.66-3.15,5.81-6.14,9.29-6.14h64.03c3.48,0,6.14,2.99,6.47,6.14l10.12,85.75c.17,1,.17,1.99-.17,2.99-.5,2.82-2.65,4.64-5.47,4.64Z"/></g><g><path class="cls-3" d="M99.19,40.81c1.49-6.47-3.15-11.78-10.28-11.78h-7.8l-15.09,70.49h7.8c7.13,0,14.1-5.14,15.43-11.61l9.95-47.11Zm36.16,56.73c-1.99,9.12-13.6,16.59-26.04,16.59H21.23c-3.48,0-5.81-2.82-4.98-6.3L34.66,20.74c.66-3.32,4.15-6.14,7.63-6.14h88.08c12.44,0,20.9,7.46,19.07,16.59l-14.1,66.35Z"/><path class="cls-3" d="M225.41,79.46l-.33-42.13-18.08,42.13h18.41Zm47.6,34.67h-40.8c-3.48,0-6.8-2.82-6.8-6.14v-13.77h-24.55l-6.14,13.77c-1.33,3.32-5.64,6.14-8.96,6.14h-40.97c-2.82,0-4.15-2.32-3.48-5.14,.17-.83,.5-1.66,.99-2.49L188.75,20.74c1.66-3.15,5.81-6.14,9.29-6.14h64.03c3.48,0,6.14,2.99,6.47,6.14l10.12,85.75c.17,1,.17,1.99-.17,2.99-.5,2.82-2.65,4.64-5.47,4.64Z"/><path class="cls-3" d="M397.75,29.04c-.83,3.48-4.31,6.3-7.63,6.3h-28.03l-15.26,72.48c-.83,3.48-4.15,6.3-7.63,6.3h-36.66c-3.48,0-5.64-2.82-4.81-6.3l15.26-72.48h-29.03c-3.48,0-5.64-2.82-4.81-6.3l1.66-8.29c.66-3.32,4.15-6.14,7.63-6.14h106.16c3.32,0,5.47,2.82,4.81,6.14l-1.66,8.29Z"/><path class="cls-3" d="M521.32,29.04c-.83,3.48-4.31,6.3-7.63,6.3h-28.03l-15.26,72.48c-.83,3.48-4.15,6.3-7.63,6.3h-36.66c-3.48,0-5.64-2.82-4.81-6.3l15.26-72.48h-29.03c-3.48,0-5.64-2.82-4.81-6.3l1.66-8.29c.66-3.32,4.15-6.14,7.63-6.14h106.16c3.32,0,5.47,2.82,4.81,6.14l-1.66,8.29Z"/><path class="cls-3" d="M571.74,79.46l-.33-42.13-18.08,42.13h18.41Zm47.6,34.67h-40.8c-3.48,0-6.8-2.82-6.8-6.14v-13.77h-24.55l-6.14,13.77c-1.33,3.32-5.64,6.14-8.96,6.14h-40.97c-2.82,0-4.15-2.32-3.48-5.14,.17-.83,.5-1.66,.99-2.49l46.44-85.75c1.66-3.15,5.81-6.14,9.29-6.14h64.03c3.48,0,6.14,2.99,6.47,6.14l10.12,85.75c.17,1,.17,1.99-.17,2.99-.5,2.82-2.65,4.64-5.47,4.64Z"/></g><g><path class="cls-41" d="M98.76,40.43c1.49-6.47-3.15-11.78-10.28-11.78h-7.8l-15.09,70.49h7.8c7.13,0,14.1-5.14,15.43-11.61l9.95-47.11Zm36.16,56.73c-1.99,9.12-13.6,16.59-26.04,16.59H20.8c-3.48,0-5.81-2.82-4.98-6.3L34.23,20.36c.66-3.32,4.15-6.14,7.63-6.14h88.08c12.44,0,20.9,7.46,19.07,16.59l-14.1,66.35Z"/><path class="cls-41" d="M224.98,79.08l-.33-42.13-18.08,42.13h18.41Zm47.6,34.67h-40.8c-3.48,0-6.8-2.82-6.8-6.14v-13.77h-24.55l-6.14,13.77c-1.33,3.32-5.64,6.14-8.96,6.14h-40.97c-2.82,0-4.15-2.32-3.48-5.14,.17-.83,.5-1.66,.99-2.49L188.32,20.36c1.66-3.15,5.81-6.14,9.29-6.14h64.03c3.48,0,6.14,2.99,6.47,6.14l10.12,85.75c.17,1,.17,1.99-.17,2.99-.5,2.82-2.65,4.64-5.47,4.64Z"/><path class="cls-41" d="M397.31,28.65c-.83,3.48-4.31,6.3-7.63,6.3h-28.03l-15.26,72.48c-.83,3.48-4.15,6.3-7.63,6.3h-36.66c-3.48,0-5.64-2.82-4.81-6.3l15.26-72.48h-29.03c-3.48,0-5.64-2.82-4.81-6.3l1.66-8.29c.66-3.32,4.15-6.14,7.63-6.14h106.16c3.32,0,5.47,2.82,4.81,6.14l-1.66,8.29Z"/><path class="cls-41" d="M520.88,28.65c-.83,3.48-4.31,6.3-7.63,6.3h-28.03l-15.26,72.48c-.83,3.48-4.15,6.3-7.63,6.3h-36.66c-3.48,0-5.64-2.82-4.81-6.3l15.26-72.48h-29.03c-3.48,0-5.64-2.82-4.81-6.3l1.66-8.29c.66-3.32,4.15-6.14,7.63-6.14h106.16c3.32,0,5.47,2.82,4.81,6.14l-1.66,8.29Z"/><path class="cls-41" d="M571.31,79.08l-.33-42.13-18.08,42.13h18.41Zm47.6,34.67h-40.8c-3.48,0-6.8-2.82-6.8-6.14v-13.77h-24.55l-6.14,13.77c-1.33,3.32-5.64,6.14-8.96,6.14h-40.97c-2.82,0-4.15-2.32-3.48-5.14,.17-.83,.5-1.66,.99-2.49l46.44-85.75c1.66-3.15,5.81-6.14,9.29-6.14h64.03c3.48,0,6.14,2.99,6.47,6.14l10.12,85.75c.17,1,.17,1.99-.17,2.99-.5,2.82-2.65,4.64-5.47,4.64Z"/></g><g><path class="cls-5" d="M98.33,40.04c1.49-6.47-3.15-11.78-10.28-11.78h-7.8l-15.09,70.49h7.8c7.13,0,14.1-5.14,15.43-11.61l9.95-47.11Zm36.16,56.73c-1.99,9.12-13.6,16.59-26.04,16.59H20.37c-3.48,0-5.81-2.82-4.98-6.3L33.8,19.97c.66-3.32,4.15-6.14,7.63-6.14h88.08c12.44,0,20.9,7.46,19.07,16.59l-14.1,66.35Z"/><path class="cls-5" d="M224.55,78.69l-.33-42.13-18.08,42.13h18.41Zm47.6,34.67h-40.8c-3.48,0-6.8-2.82-6.8-6.14v-13.77h-24.55l-6.14,13.77c-1.33,3.32-5.64,6.14-8.96,6.14h-40.97c-2.82,0-4.15-2.32-3.48-5.14,.17-.83,.5-1.66,.99-2.49L187.89,19.97c1.66-3.15,5.81-6.14,9.29-6.14h64.03c3.48,0,6.14,2.99,6.47,6.14l10.12,85.75c.17,1,.17,1.99-.17,2.99-.5,2.82-2.65,4.64-5.47,4.64Z"/><path class="cls-5" d="M396.88,28.27c-.83,3.48-4.31,6.3-7.63,6.3h-28.03l-15.26,72.48c-.83,3.48-4.15,6.3-7.63,6.3h-36.66c-3.48,0-5.64-2.82-4.81-6.3l15.26-72.48h-29.03c-3.48,0-5.64-2.82-4.81-6.3l1.66-8.29c.66-3.32,4.15-6.14,7.63-6.14h106.16c3.32,0,5.47,2.82,4.81,6.14l-1.66,8.29Z"/><path class="cls-5" d="M520.45,28.27c-.83,3.48-4.31,6.3-7.63,6.3h-28.03l-15.26,72.48c-.83,3.48-4.15,6.3-7.63,6.3h-36.66c-3.48,0-5.64-2.82-4.81-6.3l15.26-72.48h-29.03c-3.48,0-5.64-2.82-4.81-6.3l1.66-8.29c.66-3.32,4.15-6.14,7.63-6.14h106.16c3.32,0,5.47,2.82,4.81,6.14l-1.66,8.29Z"/><path class="cls-5" d="M570.88,78.69l-.33-42.13-18.08,42.13h18.41Zm47.6,34.67h-40.8c-3.48,0-6.8-2.82-6.8-6.14v-13.77h-24.55l-6.14,13.77c-1.33,3.32-5.64,6.14-8.96,6.14h-40.97c-2.82,0-4.15-2.32-3.48-5.14,.17-.83,.5-1.66,.99-2.49l46.44-85.75c1.66-3.15,5.81-6.14,9.29-6.14h64.03c3.48,0,6.14,2.99,6.47,6.14l10.12,85.75c.17,1,.17,1.99-.17,2.99-.5,2.82-2.65,4.64-5.47,4.64Z"/></g><g><path class="cls-29" d="M97.89,39.66c1.49-6.47-3.15-11.78-10.28-11.78h-7.8l-15.09,70.49h7.8c7.13,0,14.1-5.14,15.43-11.61l9.95-47.11Zm36.16,56.73c-1.99,9.12-13.6,16.59-26.04,16.59H19.94c-3.48,0-5.81-2.82-4.98-6.3L33.37,19.59c.66-3.32,4.15-6.14,7.63-6.14h88.08c12.44,0,20.9,7.46,19.07,16.59l-14.1,66.35Z"/><path class="cls-29" d="M224.12,78.31l-.33-42.13-18.08,42.13h18.41Zm47.6,34.67h-40.8c-3.48,0-6.8-2.82-6.8-6.14v-13.77h-24.55l-6.14,13.77c-1.33,3.32-5.64,6.14-8.96,6.14h-40.97c-2.82,0-4.15-2.32-3.48-5.14,.17-.83,.5-1.66,.99-2.49L187.46,19.59c1.66-3.15,5.81-6.14,9.29-6.14h64.03c3.48,0,6.14,2.99,6.47,6.14l10.12,85.75c.17,1,.17,1.99-.17,2.99-.5,2.82-2.65,4.64-5.47,4.64Z"/><path class="cls-29" d="M396.45,27.88c-.83,3.48-4.31,6.3-7.63,6.3h-28.03l-15.26,72.48c-.83,3.48-4.15,6.3-7.63,6.3h-36.66c-3.48,0-5.64-2.82-4.81-6.3l15.26-72.48h-29.03c-3.48,0-5.64-2.82-4.81-6.3l1.66-8.29c.66-3.32,4.15-6.14,7.63-6.14h106.16c3.32,0,5.47,2.82,4.81,6.14l-1.66,8.29Z"/><path class="cls-29" d="M520.02,27.88c-.83,3.48-4.31,6.3-7.63,6.3h-28.03l-15.26,72.48c-.83,3.48-4.15,6.3-7.63,6.3h-36.66c-3.48,0-5.64-2.82-4.81-6.3l15.26-72.48h-29.03c-3.48,0-5.64-2.82-4.81-6.3l1.66-8.29c.66-3.32,4.15-6.14,7.63-6.14h106.16c3.32,0,5.47,2.82,4.81,6.14l-1.66,8.29Z"/><path class="cls-29" d="M570.45,78.31l-.33-42.13-18.08,42.13h18.41Zm47.6,34.67h-40.8c-3.48,0-6.8-2.82-6.8-6.14v-13.77h-24.55l-6.14,13.77c-1.33,3.32-5.64,6.14-8.96,6.14h-40.97c-2.82,0-4.15-2.32-3.48-5.14,.17-.83,.5-1.66,.99-2.49l46.44-85.75c1.66-3.15,5.81-6.14,9.29-6.14h64.03c3.48,0,6.14,2.99,6.47,6.14l10.12,85.75c.17,1,.17,1.99-.17,2.99-.5,2.82-2.65,4.64-5.47,4.64Z"/></g><g><path class="cls-10" d="M97.46,39.27c1.49-6.47-3.15-11.78-10.28-11.78h-7.8l-15.09,70.49h7.8c7.13,0,14.1-5.14,15.43-11.61l9.95-47.11Zm36.16,56.73c-1.99,9.12-13.6,16.59-26.04,16.59H19.5c-3.48,0-5.81-2.82-4.98-6.3L32.94,19.2c.66-3.32,4.15-6.14,7.63-6.14h88.08c12.44,0,20.9,7.46,19.07,16.59l-14.1,66.35Z"/><path class="cls-10" d="M223.69,77.92l-.33-42.13-18.08,42.13h18.41Zm47.6,34.67h-40.8c-3.48,0-6.8-2.82-6.8-6.14v-13.77h-24.55l-6.14,13.77c-1.33,3.32-5.64,6.14-8.96,6.14h-40.97c-2.82,0-4.15-2.32-3.48-5.14,.17-.83,.5-1.66,.99-2.49L187.03,19.2c1.66-3.15,5.81-6.14,9.29-6.14h64.03c3.48,0,6.14,2.99,6.47,6.14l10.12,85.75c.17,1,.17,1.99-.17,2.99-.5,2.82-2.65,4.64-5.47,4.64Z"/><path class="cls-10" d="M396.02,27.5c-.83,3.48-4.31,6.3-7.63,6.3h-28.03l-15.26,72.48c-.83,3.48-4.15,6.3-7.63,6.3h-36.66c-3.48,0-5.64-2.82-4.81-6.3l15.26-72.48h-29.03c-3.48,0-5.64-2.82-4.81-6.3l1.66-8.29c.66-3.32,4.15-6.14,7.63-6.14h106.16c3.32,0,5.47,2.82,4.81,6.14l-1.66,8.29Z"/><path class="cls-10" d="M519.59,27.5c-.83,3.48-4.31,6.3-7.63,6.3h-28.03l-15.26,72.48c-.83,3.48-4.15,6.3-7.63,6.3h-36.66c-3.48,0-5.64-2.82-4.81-6.3l15.26-72.48h-29.03c-3.48,0-5.64-2.82-4.81-6.3l1.66-8.29c.66-3.32,4.15-6.14,7.63-6.14h106.16c3.32,0,5.47,2.82,4.81,6.14l-1.66,8.29Z"/><path class="cls-10" d="M570.01,77.92l-.33-42.13-18.08,42.13h18.41Zm47.6,34.67h-40.8c-3.48,0-6.8-2.82-6.8-6.14v-13.77h-24.55l-6.14,13.77c-1.33,3.32-5.64,6.14-8.96,6.14h-40.97c-2.82,0-4.15-2.32-3.48-5.14,.17-.83,.5-1.66,.99-2.49l46.44-85.75c1.66-3.15,5.81-6.14,9.29-6.14h64.03c3.48,0,6.14,2.99,6.47,6.14l10.12,85.75c.17,1,.17,1.99-.17,2.99-.5,2.82-2.65,4.64-5.47,4.64Z"/></g><g><path class="cls-46" d="M97.03,38.89c1.49-6.47-3.15-11.78-10.28-11.78h-7.8l-15.09,70.49h7.8c7.13,0,14.1-5.14,15.43-11.61l9.95-47.11Zm36.16,56.73c-1.99,9.12-13.6,16.59-26.04,16.59H19.07c-3.48,0-5.81-2.82-4.98-6.3L32.51,18.82c.66-3.32,4.15-6.14,7.63-6.14h88.08c12.44,0,20.9,7.46,19.07,16.59l-14.1,66.35Z"/><path class="cls-46" d="M223.25,77.54l-.33-42.13-18.08,42.13h18.41Zm47.6,34.67h-40.8c-3.48,0-6.8-2.82-6.8-6.14v-13.77h-24.55l-6.14,13.77c-1.33,3.32-5.64,6.14-8.96,6.14h-40.97c-2.82,0-4.15-2.32-3.48-5.14,.17-.83,.5-1.66,.99-2.49L186.6,18.82c1.66-3.15,5.81-6.14,9.29-6.14h64.03c3.48,0,6.14,2.99,6.47,6.14l10.12,85.75c.17,1,.17,1.99-.17,2.99-.5,2.82-2.65,4.64-5.47,4.64Z"/><path class="cls-46" d="M395.59,27.11c-.83,3.48-4.31,6.3-7.63,6.3h-28.03l-15.26,72.48c-.83,3.48-4.15,6.3-7.63,6.3h-36.66c-3.48,0-5.64-2.82-4.81-6.3l15.26-72.48h-29.03c-3.48,0-5.64-2.82-4.81-6.3l1.66-8.29c.66-3.32,4.15-6.14,7.63-6.14h106.16c3.32,0,5.47,2.82,4.81,6.14l-1.66,8.29Z"/><path class="cls-46" d="M519.16,27.11c-.83,3.48-4.31,6.3-7.63,6.3h-28.03l-15.26,72.48c-.83,3.48-4.15,6.3-7.63,6.3h-36.66c-3.48,0-5.64-2.82-4.81-6.3l15.26-72.48h-29.03c-3.48,0-5.64-2.82-4.81-6.3l1.66-8.29c.66-3.32,4.15-6.14,7.63-6.14h106.16c3.32,0,5.47,2.82,4.81,6.14l-1.66,8.29Z"/><path class="cls-46" d="M569.58,77.54l-.33-42.13-18.08,42.13h18.41Zm47.6,34.67h-40.8c-3.48,0-6.8-2.82-6.8-6.14v-13.77h-24.55l-6.14,13.77c-1.33,3.32-5.64,6.14-8.96,6.14h-40.97c-2.82,0-4.15-2.32-3.48-5.14,.17-.83,.5-1.66,.99-2.49l46.44-85.75c1.66-3.15,5.81-6.14,9.29-6.14h64.03c3.48,0,6.14,2.99,6.47,6.14l10.12,85.75c.17,1,.17,1.99-.17,2.99-.5,2.82-2.65,4.64-5.47,4.64Z"/></g><g><path class="cls-40" d="M96.6,38.5c1.49-6.47-3.15-11.78-10.28-11.78h-7.8l-15.09,70.49h7.8c7.13,0,14.1-5.14,15.43-11.61l9.95-47.11Zm36.16,56.73c-1.99,9.12-13.6,16.59-26.04,16.59H18.64c-3.48,0-5.81-2.82-4.98-6.3L32.08,18.43c.66-3.32,4.15-6.14,7.63-6.14H127.78c12.44,0,20.9,7.46,19.07,16.59l-14.1,66.35Z"/><path class="cls-40" d="M222.82,77.15l-.33-42.13-18.08,42.13h18.41Zm47.6,34.67h-40.8c-3.48,0-6.8-2.82-6.8-6.14v-13.77h-24.55l-6.14,13.77c-1.33,3.32-5.64,6.14-8.96,6.14h-40.97c-2.82,0-4.15-2.32-3.48-5.14,.17-.83,.5-1.66,.99-2.49L186.17,18.43c1.66-3.15,5.81-6.14,9.29-6.14h64.03c3.48,0,6.14,2.99,6.47,6.14l10.12,85.75c.17,1,.17,1.99-.17,2.99-.5,2.82-2.65,4.64-5.47,4.64Z"/><path class="cls-40" d="M395.16,26.73c-.83,3.48-4.31,6.3-7.63,6.3h-28.03l-15.26,72.48c-.83,3.48-4.15,6.3-7.63,6.3h-36.66c-3.48,0-5.64-2.82-4.81-6.3l15.26-72.48h-29.03c-3.48,0-5.64-2.82-4.81-6.3l1.66-8.29c.66-3.32,4.15-6.14,7.63-6.14h106.16c3.32,0,5.47,2.82,4.81,6.14l-1.66,8.29Z"/><path class="cls-40" d="M518.73,26.73c-.83,3.48-4.31,6.3-7.63,6.3h-28.03l-15.26,72.48c-.83,3.48-4.15,6.3-7.63,6.3h-36.66c-3.48,0-5.64-2.82-4.81-6.3l15.26-72.48h-29.03c-3.48,0-5.64-2.82-4.81-6.3l1.66-8.29c.66-3.32,4.15-6.14,7.63-6.14h106.16c3.32,0,5.47,2.82,4.81,6.14l-1.66,8.29Z"/><path class="cls-40" d="M569.15,77.15l-.33-42.13-18.08,42.13h18.41Zm47.6,34.67h-40.8c-3.48,0-6.8-2.82-6.8-6.14v-13.77h-24.55l-6.14,13.77c-1.33,3.32-5.64,6.14-8.96,6.14h-40.97c-2.82,0-4.15-2.32-3.48-5.14,.17-.83,.5-1.66,.99-2.49l46.44-85.75c1.66-3.15,5.81-6.14,9.29-6.14h64.03c3.48,0,6.14,2.99,6.47,6.14l10.12,85.75c.17,1,.17,1.99-.17,2.99-.5,2.82-2.65,4.64-5.47,4.64Z"/></g><g><path class="cls-37" d="M96.17,38.12c1.49-6.47-3.15-11.78-10.28-11.78h-7.8l-15.09,70.49h7.8c7.13,0,14.1-5.14,15.43-11.61l9.95-47.11Zm36.16,56.73c-1.99,9.12-13.6,16.59-26.04,16.59H18.21c-3.48,0-5.81-2.82-4.98-6.3L31.65,18.05c.66-3.32,4.15-6.14,7.63-6.14H127.35c12.44,0,20.9,7.46,19.07,16.59l-14.1,66.35Z"/><path class="cls-37" d="M222.39,76.77l-.33-42.13-18.08,42.13h18.41Zm47.6,34.67h-40.8c-3.48,0-6.8-2.82-6.8-6.14v-13.77h-24.55l-6.14,13.77c-1.33,3.32-5.64,6.14-8.96,6.14h-40.97c-2.82,0-4.15-2.32-3.48-5.14,.17-.83,.5-1.66,.99-2.49L185.73,18.05c1.66-3.15,5.81-6.14,9.29-6.14h64.03c3.48,0,6.14,2.99,6.47,6.14l10.12,85.75c.17,1,.17,1.99-.17,2.99-.5,2.82-2.65,4.64-5.47,4.64Z"/><path class="cls-37" d="M394.73,26.34c-.83,3.48-4.31,6.3-7.63,6.3h-28.03l-15.26,72.48c-.83,3.48-4.15,6.3-7.63,6.3h-36.66c-3.48,0-5.64-2.82-4.81-6.3l15.26-72.48h-29.03c-3.48,0-5.64-2.82-4.81-6.3l1.66-8.29c.66-3.32,4.15-6.14,7.63-6.14h106.16c3.32,0,5.47,2.82,4.81,6.14l-1.66,8.29Z"/><path class="cls-37" d="M518.3,26.34c-.83,3.48-4.31,6.3-7.63,6.3h-28.03l-15.26,72.48c-.83,3.48-4.15,6.3-7.63,6.3h-36.66c-3.48,0-5.64-2.82-4.81-6.3l15.26-72.48h-29.03c-3.48,0-5.64-2.82-4.81-6.3l1.66-8.29c.66-3.32,4.15-6.14,7.63-6.14h106.16c3.32,0,5.47,2.82,4.81,6.14l-1.66,8.29Z"/><path class="cls-37" d="M568.72,76.77l-.33-42.13-18.08,42.13h18.41Zm47.6,34.67h-40.8c-3.48,0-6.8-2.82-6.8-6.14v-13.77h-24.55l-6.14,13.77c-1.33,3.32-5.64,6.14-8.96,6.14h-40.97c-2.82,0-4.15-2.32-3.48-5.14,.17-.83,.5-1.66,.99-2.49l46.44-85.75c1.66-3.15,5.81-6.14,9.29-6.14h64.03c3.48,0,6.14,2.99,6.47,6.14l10.12,85.75c.17,1,.17,1.99-.17,2.99-.5,2.82-2.65,4.64-5.47,4.64Z"/></g><g><path class="cls-11" d="M95.74,37.73c1.49-6.47-3.15-11.78-10.28-11.78h-7.8l-15.09,70.49h7.8c7.13,0,14.1-5.14,15.43-11.61l9.95-47.11Zm36.16,56.73c-1.99,9.12-13.6,16.59-26.04,16.59H17.78c-3.48,0-5.81-2.82-4.98-6.3L31.21,17.66c.66-3.32,4.15-6.14,7.63-6.14H126.92c12.44,0,20.9,7.46,19.07,16.59l-14.1,66.35Z"/><path class="cls-11" d="M221.96,76.38l-.33-42.13-18.08,42.13h18.41Zm47.6,34.67h-40.8c-3.48,0-6.8-2.82-6.8-6.14v-13.77h-24.55l-6.14,13.77c-1.33,3.32-5.64,6.14-8.96,6.14h-40.97c-2.82,0-4.15-2.32-3.48-5.14,.17-.83,.5-1.66,.99-2.49L185.3,17.66c1.66-3.15,5.81-6.14,9.29-6.14h64.03c3.48,0,6.14,2.99,6.47,6.14l10.12,85.75c.17,1,.17,1.99-.17,2.99-.5,2.82-2.65,4.64-5.47,4.64Z"/><path class="cls-11" d="M394.3,25.96c-.83,3.48-4.31,6.3-7.63,6.3h-28.03l-15.26,72.48c-.83,3.48-4.15,6.3-7.63,6.3h-36.66c-3.48,0-5.64-2.82-4.81-6.3l15.26-72.48h-29.03c-3.48,0-5.64-2.82-4.81-6.3l1.66-8.29c.66-3.32,4.15-6.14,7.63-6.14h106.16c3.32,0,5.47,2.82,4.81,6.14l-1.66,8.29Z"/><path class="cls-11" d="M517.87,25.96c-.83,3.48-4.31,6.3-7.63,6.3h-28.03l-15.26,72.48c-.83,3.48-4.15,6.3-7.63,6.3h-36.66c-3.48,0-5.64-2.82-4.81-6.3l15.26-72.48h-29.03c-3.48,0-5.64-2.82-4.81-6.3l1.66-8.29c.66-3.32,4.15-6.14,7.63-6.14h106.16c3.32,0,5.47,2.82,4.81,6.14l-1.66,8.29Z"/><path class="cls-11" d="M568.29,76.38l-.33-42.13-18.08,42.13h18.41Zm47.6,34.67h-40.8c-3.48,0-6.8-2.82-6.8-6.14v-13.77h-24.55l-6.14,13.77c-1.33,3.32-5.64,6.14-8.96,6.14h-40.97c-2.82,0-4.15-2.32-3.48-5.14,.17-.83,.5-1.66,.99-2.49l46.44-85.75c1.66-3.15,5.81-6.14,9.29-6.14h64.03c3.48,0,6.14,2.99,6.47,6.14l10.12,85.75c.17,1,.17,1.99-.17,2.99-.5,2.82-2.65,4.64-5.47,4.64Z"/></g><g><path class="cls-45" d="M95.31,37.35c1.49-6.47-3.15-11.78-10.28-11.78h-7.8l-15.09,70.49h7.8c7.13,0,14.1-5.14,15.43-11.61l9.95-47.11Zm36.16,56.73c-1.99,9.12-13.6,16.59-26.04,16.59H17.35c-3.48,0-5.81-2.82-4.98-6.3L30.78,17.28c.66-3.32,4.15-6.14,7.63-6.14H126.49c12.44,0,20.9,7.46,19.07,16.59l-14.1,66.35Z"/><path class="cls-45" d="M221.53,76l-.33-42.13-18.08,42.13h18.41Zm47.6,34.67h-40.8c-3.48,0-6.8-2.82-6.8-6.14v-13.77h-24.55l-6.14,13.77c-1.33,3.32-5.64,6.14-8.96,6.14h-40.97c-2.82,0-4.15-2.32-3.48-5.14,.17-.83,.5-1.66,.99-2.49L184.87,17.28c1.66-3.15,5.81-6.14,9.29-6.14h64.03c3.48,0,6.14,2.99,6.47,6.14l10.12,85.75c.17,1,.17,1.99-.17,2.99-.5,2.82-2.65,4.64-5.47,4.64Z"/><path class="cls-45" d="M393.86,25.57c-.83,3.48-4.31,6.3-7.63,6.3h-28.03l-15.26,72.48c-.83,3.48-4.15,6.3-7.63,6.3h-36.66c-3.48,0-5.64-2.82-4.81-6.3l15.26-72.48h-29.03c-3.48,0-5.64-2.82-4.81-6.3l1.66-8.29c.66-3.32,4.15-6.14,7.63-6.14h106.16c3.32,0,5.47,2.82,4.81,6.14l-1.66,8.29Z"/><path class="cls-45" d="M517.43,25.57c-.83,3.48-4.31,6.3-7.63,6.3h-28.03l-15.26,72.48c-.83,3.48-4.15,6.3-7.63,6.3h-36.66c-3.48,0-5.64-2.82-4.81-6.3l15.26-72.48h-29.03c-3.48,0-5.64-2.82-4.81-6.3l1.66-8.29c.66-3.32,4.15-6.14,7.63-6.14h106.16c3.32,0,5.47,2.82,4.81,6.14l-1.66,8.29Z"/><path class="cls-45" d="M567.86,76l-.33-42.13-18.08,42.13h18.41Zm47.6,34.67h-40.8c-3.48,0-6.8-2.82-6.8-6.14v-13.77h-24.55l-6.14,13.77c-1.33,3.32-5.64,6.14-8.96,6.14h-40.97c-2.82,0-4.15-2.32-3.48-5.14,.17-.83,.5-1.66,.99-2.49l46.44-85.75c1.66-3.15,5.81-6.14,9.29-6.14h64.03c3.48,0,6.14,2.99,6.47,6.14l10.12,85.75c.17,1,.17,1.99-.17,2.99-.5,2.82-2.65,4.64-5.47,4.64Z"/></g><g><path class="cls-9" d="M94.88,36.96c1.49-6.47-3.15-11.78-10.28-11.78h-7.8l-15.09,70.49h7.8c7.13,0,14.1-5.14,15.43-11.61l9.95-47.11Zm36.16,56.73c-1.99,9.12-13.6,16.59-26.04,16.59H16.92c-3.48,0-5.81-2.82-4.98-6.3L30.35,16.89c.66-3.32,4.15-6.14,7.63-6.14H126.06c12.44,0,20.9,7.46,19.07,16.59l-14.1,66.35Z"/><path class="cls-9" d="M221.1,75.61l-.33-42.13-18.08,42.13h18.41Zm47.6,34.67h-40.8c-3.48,0-6.8-2.82-6.8-6.14v-13.77h-24.55l-6.14,13.77c-1.33,3.32-5.64,6.14-8.96,6.14h-40.97c-2.82,0-4.15-2.32-3.48-5.14,.17-.83,.5-1.66,.99-2.49L184.44,16.89c1.66-3.15,5.81-6.14,9.29-6.14h64.03c3.48,0,6.14,2.99,6.47,6.14l10.12,85.75c.17,1,.17,1.99-.17,2.99-.5,2.82-2.65,4.64-5.47,4.64Z"/><path class="cls-9" d="M393.43,25.19c-.83,3.48-4.31,6.3-7.63,6.3h-28.03l-15.26,72.48c-.83,3.48-4.15,6.3-7.63,6.3h-36.66c-3.48,0-5.64-2.82-4.81-6.3l15.26-72.48h-29.03c-3.48,0-5.64-2.82-4.81-6.3l1.66-8.29c.66-3.32,4.15-6.14,7.63-6.14h106.16c3.32,0,5.47,2.82,4.81,6.14l-1.66,8.29Z"/><path class="cls-9" d="M517,25.19c-.83,3.48-4.31,6.3-7.63,6.3h-28.03l-15.26,72.48c-.83,3.48-4.15,6.3-7.63,6.3h-36.66c-3.48,0-5.64-2.82-4.81-6.3l15.26-72.48h-29.03c-3.48,0-5.64-2.82-4.81-6.3l1.66-8.29c.66-3.32,4.15-6.14,7.63-6.14h106.16c3.32,0,5.47,2.82,4.81,6.14l-1.66,8.29Z"/><path class="cls-9" d="M567.43,75.61l-.33-42.13-18.08,42.13h18.41Zm47.6,34.67h-40.8c-3.48,0-6.8-2.82-6.8-6.14v-13.77h-24.55l-6.14,13.77c-1.33,3.32-5.64,6.14-8.96,6.14h-40.97c-2.82,0-4.15-2.32-3.48-5.14,.17-.83,.5-1.66,.99-2.49l46.44-85.75c1.66-3.15,5.81-6.14,9.29-6.14h64.03c3.48,0,6.14,2.99,6.47,6.14l10.12,85.75c.17,1,.17,1.99-.17,2.99-.5,2.82-2.65,4.64-5.47,4.64Z"/></g><g><path class="cls-13" d="M94.44,36.58c1.49-6.47-3.15-11.78-10.28-11.78h-7.8l-15.09,70.49h7.8c7.13,0,14.1-5.14,15.43-11.61l9.95-47.11Zm36.16,56.73c-1.99,9.12-13.6,16.59-26.04,16.59H16.49c-3.48,0-5.81-2.82-4.98-6.3L29.92,16.51c.66-3.32,4.15-6.14,7.63-6.14H125.63c12.44,0,20.9,7.46,19.07,16.59l-14.1,66.35Z"/><path class="cls-13" d="M220.67,75.23l-.33-42.13-18.08,42.13h18.41Zm47.6,34.67h-40.8c-3.48,0-6.8-2.82-6.8-6.14v-13.77h-24.55l-6.14,13.77c-1.33,3.32-5.64,6.14-8.96,6.14h-40.97c-2.82,0-4.15-2.32-3.48-5.14,.17-.83,.5-1.66,.99-2.49L184.01,16.51c1.66-3.15,5.81-6.14,9.29-6.14h64.03c3.48,0,6.14,2.99,6.47,6.14l10.12,85.75c.17,1,.17,1.99-.17,2.99-.5,2.82-2.65,4.64-5.47,4.64Z"/><path class="cls-13" d="M393,24.8c-.83,3.48-4.31,6.3-7.63,6.3h-28.03l-15.26,72.48c-.83,3.48-4.15,6.3-7.63,6.3h-36.66c-3.48,0-5.64-2.82-4.81-6.3l15.26-72.48h-29.03c-3.48,0-5.64-2.82-4.81-6.3l1.66-8.29c.66-3.32,4.15-6.14,7.63-6.14h106.16c3.32,0,5.47,2.82,4.81,6.14l-1.66,8.29Z"/><path class="cls-13" d="M516.57,24.8c-.83,3.48-4.31,6.3-7.63,6.3h-28.03l-15.26,72.48c-.83,3.48-4.15,6.3-7.63,6.3h-36.66c-3.48,0-5.64-2.82-4.81-6.3l15.26-72.48h-29.03c-3.48,0-5.64-2.82-4.81-6.3l1.66-8.29c.66-3.32,4.15-6.14,7.63-6.14h106.16c3.32,0,5.47,2.82,4.81,6.14l-1.66,8.29Z"/><path class="cls-13" d="M567,75.23l-.33-42.13-18.08,42.13h18.41Zm47.6,34.67h-40.8c-3.48,0-6.8-2.82-6.8-6.14v-13.77h-24.55l-6.14,13.77c-1.33,3.32-5.64,6.14-8.96,6.14h-40.97c-2.82,0-4.15-2.32-3.48-5.14,.17-.83,.5-1.66,.99-2.49l46.44-85.75c1.66-3.15,5.81-6.14,9.29-6.14h64.03c3.48,0,6.14,2.99,6.47,6.14l10.12,85.75c.17,1,.17,1.99-.17,2.99-.5,2.82-2.65,4.64-5.47,4.64Z"/></g><g><path class="cls-47" d="M94.01,36.19c1.49-6.47-3.15-11.78-10.28-11.78h-7.8l-15.09,70.49h7.8c7.13,0,14.1-5.14,15.43-11.61l9.95-47.11Zm36.16,56.73c-1.99,9.12-13.6,16.59-26.04,16.59H16.05c-3.48,0-5.81-2.82-4.98-6.3L29.49,16.12c.66-3.32,4.15-6.14,7.63-6.14H125.2c12.44,0,20.9,7.46,19.07,16.59l-14.1,66.35Z"/><path class="cls-47" d="M220.24,74.84l-.33-42.13-18.08,42.13h18.41Zm47.6,34.67h-40.8c-3.48,0-6.8-2.82-6.8-6.14v-13.77h-24.55l-6.14,13.77c-1.33,3.32-5.64,6.14-8.96,6.14h-40.97c-2.82,0-4.15-2.32-3.48-5.14,.17-.83,.5-1.66,.99-2.49L183.58,16.12c1.66-3.15,5.81-6.14,9.29-6.14h64.03c3.48,0,6.14,2.99,6.47,6.14l10.12,85.75c.17,1,.17,1.99-.17,2.99-.5,2.82-2.65,4.64-5.47,4.64Z"/><path class="cls-47" d="M392.57,24.42c-.83,3.48-4.31,6.3-7.63,6.3h-28.03l-15.26,72.48c-.83,3.48-4.15,6.3-7.63,6.3h-36.66c-3.48,0-5.64-2.82-4.81-6.3l15.26-72.48h-29.03c-3.48,0-5.64-2.82-4.81-6.3l1.66-8.29c.66-3.32,4.15-6.14,7.63-6.14h106.16c3.32,0,5.47,2.82,4.81,6.14l-1.66,8.29Z"/><path class="cls-47" d="M516.14,24.42c-.83,3.48-4.31,6.3-7.63,6.3h-28.03l-15.26,72.48c-.83,3.48-4.15,6.3-7.63,6.3h-36.66c-3.48,0-5.64-2.82-4.81-6.3l15.26-72.48h-29.03c-3.48,0-5.64-2.82-4.81-6.3l1.66-8.29c.66-3.32,4.15-6.14,7.63-6.14h106.16c3.32,0,5.47,2.82,4.81,6.14l-1.66,8.29Z"/><path class="cls-47" d="M566.56,74.84l-.33-42.13-18.08,42.13h18.41Zm47.6,34.67h-40.8c-3.48,0-6.8-2.82-6.8-6.14v-13.77h-24.55l-6.14,13.77c-1.33,3.32-5.64,6.14-8.96,6.14h-40.97c-2.82,0-4.15-2.32-3.48-5.14,.17-.83,.5-1.66,.99-2.49l46.44-85.75c1.66-3.15,5.81-6.14,9.29-6.14h64.03c3.48,0,6.14,2.99,6.47,6.14l10.12,85.75c.17,1,.17,1.99-.17,2.99-.5,2.82-2.65,4.64-5.47,4.64Z"/></g><g><path class="cls-27" d="M93.58,35.81c1.49-6.47-3.15-11.78-10.28-11.78h-7.8l-15.09,70.49h7.8c7.13,0,14.1-5.14,15.43-11.61l9.95-47.11Zm36.16,56.73c-1.99,9.12-13.6,16.59-26.04,16.59H15.62c-3.48,0-5.81-2.82-4.98-6.3L29.06,15.74c.66-3.32,4.15-6.14,7.63-6.14H124.77c12.44,0,20.9,7.46,19.07,16.59l-14.1,66.35Z"/><path class="cls-27" d="M219.8,74.46l-.33-42.13-18.08,42.13h18.41Zm47.6,34.67h-40.8c-3.48,0-6.8-2.82-6.8-6.14v-13.77h-24.55l-6.14,13.77c-1.33,3.32-5.64,6.14-8.96,6.14h-40.97c-2.82,0-4.15-2.32-3.48-5.14,.17-.83,.5-1.66,.99-2.49L183.15,15.74c1.66-3.15,5.81-6.14,9.29-6.14h64.03c3.48,0,6.14,2.99,6.47,6.14l10.12,85.75c.17,1,.17,1.99-.17,2.99-.5,2.82-2.65,4.64-5.47,4.64Z"/><path class="cls-27" d="M392.14,24.03c-.83,3.48-4.31,6.3-7.63,6.3h-28.03l-15.26,72.48c-.83,3.48-4.15,6.3-7.63,6.3h-36.66c-3.48,0-5.64-2.82-4.81-6.3l15.26-72.48h-29.03c-3.48,0-5.64-2.82-4.81-6.3l1.66-8.29c.66-3.32,4.15-6.14,7.63-6.14h106.16c3.32,0,5.47,2.82,4.81,6.14l-1.66,8.29Z"/><path class="cls-27" d="M515.71,24.03c-.83,3.48-4.31,6.3-7.63,6.3h-28.03l-15.26,72.48c-.83,3.48-4.15,6.3-7.63,6.3h-36.66c-3.48,0-5.64-2.82-4.81-6.3l15.26-72.48h-29.03c-3.48,0-5.64-2.82-4.81-6.3l1.66-8.29c.66-3.32,4.15-6.14,7.63-6.14h106.16c3.32,0,5.47,2.82,4.81,6.14l-1.66,8.29Z"/><path class="cls-27" d="M566.13,74.46l-.33-42.13-18.08,42.13h18.41Zm47.6,34.67h-40.8c-3.48,0-6.8-2.82-6.8-6.14v-13.77h-24.55l-6.14,13.77c-1.33,3.32-5.64,6.14-8.96,6.14h-40.97c-2.82,0-4.15-2.32-3.48-5.14,.17-.83,.5-1.66,.99-2.49l46.44-85.75c1.66-3.15,5.81-6.14,9.29-6.14h64.03c3.48,0,6.14,2.99,6.47,6.14l10.12,85.75c.17,1,.17,1.99-.17,2.99-.5,2.82-2.65,4.64-5.47,4.64Z"/></g><g><path class="cls-22" d="M93.15,35.42c1.49-6.47-3.15-11.78-10.28-11.78h-7.8l-15.09,70.49h7.8c7.13,0,14.1-5.14,15.43-11.61l9.95-47.11Zm36.16,56.73c-1.99,9.12-13.6,16.59-26.04,16.59H15.19c-3.48,0-5.81-2.82-4.98-6.3L28.63,15.35c.66-3.32,4.15-6.14,7.63-6.14H124.33c12.44,0,20.9,7.46,19.07,16.59l-14.1,66.35Z"/><path class="cls-22" d="M219.37,74.07l-.33-42.13-18.08,42.13h18.41Zm47.6,34.67h-40.8c-3.48,0-6.8-2.82-6.8-6.14v-13.77h-24.55l-6.14,13.77c-1.33,3.32-5.64,6.14-8.96,6.14h-40.97c-2.82,0-4.15-2.32-3.48-5.14,.17-.83,.5-1.66,.99-2.49L182.72,15.35c1.66-3.15,5.81-6.14,9.29-6.14h64.03c3.48,0,6.14,2.99,6.47,6.14l10.12,85.75c.17,1,.17,1.99-.17,2.99-.5,2.82-2.65,4.64-5.47,4.64Z"/><path class="cls-22" d="M391.71,23.65c-.83,3.48-4.31,6.3-7.63,6.3h-28.03l-15.26,72.48c-.83,3.48-4.15,6.3-7.63,6.3h-36.66c-3.48,0-5.64-2.82-4.81-6.3l15.26-72.48h-29.03c-3.48,0-5.64-2.82-4.81-6.3l1.66-8.29c.66-3.32,4.15-6.14,7.63-6.14h106.16c3.32,0,5.47,2.82,4.81,6.14l-1.66,8.29Z"/><path class="cls-22" d="M515.28,23.65c-.83,3.48-4.31,6.3-7.63,6.3h-28.03l-15.26,72.48c-.83,3.48-4.15,6.3-7.63,6.3h-36.66c-3.48,0-5.64-2.82-4.81-6.3l15.26-72.48h-29.03c-3.48,0-5.64-2.82-4.81-6.3l1.66-8.29c.66-3.32,4.15-6.14,7.63-6.14h106.16c3.32,0,5.47,2.82,4.81,6.14l-1.66,8.29Z"/><path class="cls-22" d="M565.7,74.07l-.33-42.13-18.08,42.13h18.41Zm47.6,34.67h-40.8c-3.48,0-6.8-2.82-6.8-6.14v-13.77h-24.55l-6.14,13.77c-1.33,3.32-5.64,6.14-8.96,6.14h-40.97c-2.82,0-4.15-2.32-3.48-5.14,.17-.83,.5-1.66,.99-2.49l46.44-85.75c1.66-3.15,5.81-6.14,9.29-6.14h64.03c3.48,0,6.14,2.99,6.47,6.14l10.12,85.75c.17,1,.17,1.99-.17,2.99-.5,2.82-2.65,4.64-5.47,4.64Z"/></g><g><path class="cls-28" d="M92.72,35.04c1.49-6.47-3.15-11.78-10.28-11.78h-7.8l-15.09,70.49h7.8c7.13,0,14.1-5.14,15.43-11.61l9.95-47.11Zm36.16,56.73c-1.99,9.12-13.6,16.59-26.04,16.59H14.76c-3.48,0-5.81-2.82-4.98-6.3L28.2,14.97c.66-3.32,4.15-6.14,7.63-6.14H123.9c12.44,0,20.9,7.46,19.07,16.59l-14.1,66.35Z"/><path class="cls-28" d="M218.94,73.69l-.33-42.13-18.08,42.13h18.41Zm47.6,34.67h-40.8c-3.48,0-6.8-2.82-6.8-6.14v-13.77h-24.55l-6.14,13.77c-1.33,3.32-5.64,6.14-8.96,6.14h-40.97c-2.82,0-4.15-2.32-3.48-5.14,.17-.83,.5-1.66,.99-2.49L182.28,14.97c1.66-3.15,5.81-6.14,9.29-6.14h64.03c3.48,0,6.14,2.99,6.47,6.14l10.12,85.75c.17,1,.17,1.99-.17,2.99-.5,2.82-2.65,4.64-5.47,4.64Z"/><path class="cls-28" d="M391.28,23.26c-.83,3.48-4.31,6.3-7.63,6.3h-28.03l-15.26,72.48c-.83,3.48-4.15,6.3-7.63,6.3h-36.66c-3.48,0-5.64-2.82-4.81-6.3l15.26-72.48h-29.03c-3.48,0-5.64-2.82-4.81-6.3l1.66-8.29c.66-3.32,4.15-6.14,7.63-6.14h106.16c3.32,0,5.47,2.82,4.81,6.14l-1.66,8.29Z"/><path class="cls-28" d="M514.85,23.26c-.83,3.48-4.31,6.3-7.63,6.3h-28.03l-15.26,72.48c-.83,3.48-4.15,6.3-7.63,6.3h-36.66c-3.48,0-5.64-2.82-4.81-6.3l15.26-72.48h-29.03c-3.48,0-5.64-2.82-4.81-6.3l1.66-8.29c.66-3.32,4.15-6.14,7.63-6.14h106.16c3.32,0,5.47,2.82,4.81,6.14l-1.66,8.29Z"/><path class="cls-28" d="M565.27,73.69l-.33-42.13-18.08,42.13h18.41Zm47.6,34.67h-40.8c-3.48,0-6.8-2.82-6.8-6.14v-13.77h-24.55l-6.14,13.77c-1.33,3.32-5.64,6.14-8.96,6.14h-40.97c-2.82,0-4.15-2.32-3.48-5.14,.17-.83,.5-1.66,.99-2.49l46.44-85.75c1.66-3.15,5.81-6.14,9.29-6.14h64.03c3.48,0,6.14,2.99,6.47,6.14l10.12,85.75c.17,1,.17,1.99-.17,2.99-.5,2.82-2.65,4.64-5.47,4.64Z"/></g><g><path class="cls-15" d="M92.29,34.65c1.49-6.47-3.15-11.78-10.28-11.78h-7.8l-15.09,70.49h7.8c7.13,0,14.1-5.14,15.43-11.61l9.95-47.11Zm36.16,56.73c-1.99,9.12-13.6,16.59-26.04,16.59H14.33c-3.48,0-5.81-2.82-4.98-6.3L27.76,14.58c.66-3.32,4.15-6.14,7.63-6.14H123.47c12.44,0,20.9,7.46,19.07,16.59l-14.1,66.35Z"/><path class="cls-15" d="M218.51,73.3l-.33-42.13-18.08,42.13h18.41Zm47.6,34.67h-40.8c-3.48,0-6.8-2.82-6.8-6.14v-13.77h-24.55l-6.14,13.77c-1.33,3.32-5.64,6.14-8.96,6.14h-40.97c-2.82,0-4.15-2.32-3.48-5.14,.17-.83,.5-1.66,.99-2.49L181.85,14.58c1.66-3.15,5.81-6.14,9.29-6.14h64.03c3.48,0,6.14,2.99,6.47,6.14l10.12,85.75c.17,1,.17,1.99-.17,2.99-.5,2.82-2.65,4.64-5.47,4.64Z"/><path class="cls-15" d="M390.85,22.88c-.83,3.48-4.31,6.3-7.63,6.3h-28.03l-15.26,72.48c-.83,3.48-4.15,6.3-7.63,6.3h-36.66c-3.48,0-5.64-2.82-4.81-6.3l15.26-72.48h-29.03c-3.48,0-5.64-2.82-4.81-6.3l1.66-8.29c.66-3.32,4.15-6.14,7.63-6.14h106.16c3.32,0,5.47,2.82,4.81,6.14l-1.66,8.29Z"/><path class="cls-15" d="M514.42,22.88c-.83,3.48-4.31,6.3-7.63,6.3h-28.03l-15.26,72.48c-.83,3.48-4.15,6.3-7.63,6.3h-36.66c-3.48,0-5.64-2.82-4.81-6.3l15.26-72.48h-29.03c-3.48,0-5.64-2.82-4.81-6.3l1.66-8.29c.66-3.32,4.15-6.14,7.63-6.14h106.16c3.32,0,5.47,2.82,4.81,6.14l-1.66,8.29Z"/><path class="cls-15" d="M564.84,73.3l-.33-42.13-18.08,42.13h18.41Zm47.6,34.67h-40.8c-3.48,0-6.8-2.82-6.8-6.14v-13.77h-24.55l-6.14,13.77c-1.33,3.32-5.64,6.14-8.96,6.14h-40.97c-2.82,0-4.15-2.32-3.48-5.14,.17-.83,.5-1.66,.99-2.49l46.44-85.75c1.66-3.15,5.81-6.14,9.29-6.14h64.03c3.48,0,6.14,2.99,6.47,6.14l10.12,85.75c.17,1,.17,1.99-.17,2.99-.5,2.82-2.65,4.64-5.47,4.64Z"/></g><g><path class="cls-14" d="M91.86,34.27c1.49-6.47-3.15-11.78-10.28-11.78h-7.8l-15.09,70.49h7.8c7.13,0,14.1-5.14,15.43-11.61l9.95-47.11Zm36.16,56.73c-1.99,9.12-13.6,16.59-26.04,16.59H13.9c-3.48,0-5.81-2.82-4.98-6.3L27.33,14.2c.66-3.32,4.15-6.14,7.63-6.14H123.04c12.44,0,20.9,7.46,19.07,16.59l-14.1,66.35Z"/><path class="cls-14" d="M218.08,72.92l-.33-42.13-18.08,42.13h18.41Zm47.6,34.67h-40.8c-3.48,0-6.8-2.82-6.8-6.14v-13.77h-24.55l-6.14,13.77c-1.33,3.32-5.64,6.14-8.96,6.14h-40.97c-2.82,0-4.15-2.32-3.48-5.14,.17-.83,.5-1.66,.99-2.49L181.42,14.2c1.66-3.15,5.81-6.14,9.29-6.14h64.03c3.48,0,6.14,2.99,6.47,6.14l10.12,85.75c.17,1,.17,1.99-.17,2.99-.5,2.82-2.65,4.64-5.47,4.64Z"/><path class="cls-14" d="M390.41,22.49c-.83,3.48-4.31,6.3-7.63,6.3h-28.03l-15.26,72.48c-.83,3.48-4.15,6.3-7.63,6.3h-36.66c-3.48,0-5.64-2.82-4.81-6.3l15.26-72.48h-29.03c-3.48,0-5.64-2.82-4.81-6.3l1.66-8.29c.66-3.32,4.15-6.14,7.63-6.14h106.16c3.32,0,5.47,2.82,4.81,6.14l-1.66,8.29Z"/><path class="cls-14" d="M513.98,22.49c-.83,3.48-4.31,6.3-7.63,6.3h-28.03l-15.26,72.48c-.83,3.48-4.15,6.3-7.63,6.3h-36.66c-3.48,0-5.64-2.82-4.81-6.3l15.26-72.48h-29.03c-3.48,0-5.64-2.82-4.81-6.3l1.66-8.29c.66-3.32,4.15-6.14,7.63-6.14h106.16c3.32,0,5.47,2.82,4.81,6.14l-1.66,8.29Z"/><path class="cls-14" d="M564.41,72.92l-.33-42.13-18.08,42.13h18.41Zm47.6,34.67h-40.8c-3.48,0-6.8-2.82-6.8-6.14v-13.77h-24.55l-6.14,13.77c-1.33,3.32-5.64,6.14-8.96,6.14h-40.97c-2.82,0-4.15-2.32-3.48-5.14,.17-.83,.5-1.66,.99-2.49l46.44-85.75c1.66-3.15,5.81-6.14,9.29-6.14h64.03c3.48,0,6.14,2.99,6.47,6.14l10.12,85.75c.17,1,.17,1.99-.17,2.99-.5,2.82-2.65,4.64-5.47,4.64Z"/></g><g><path class="cls-23" d="M91.43,33.88c1.49-6.47-3.15-11.78-10.28-11.78h-7.8l-15.09,70.49h7.8c7.13,0,14.1-5.14,15.43-11.61l9.95-47.11Zm36.16,56.73c-1.99,9.12-13.6,16.59-26.04,16.59H13.47c-3.48,0-5.81-2.82-4.98-6.3L26.9,13.81c.66-3.32,4.15-6.14,7.63-6.14H122.61c12.44,0,20.9,7.46,19.07,16.59l-14.1,66.35Z"/><path class="cls-23" d="M217.65,72.53l-.33-42.13-18.08,42.13h18.41Zm47.6,34.67h-40.8c-3.48,0-6.8-2.82-6.8-6.14v-13.77h-24.55l-6.14,13.77c-1.33,3.32-5.64,6.14-8.96,6.14h-40.97c-2.82,0-4.15-2.32-3.48-5.14,.17-.83,.5-1.66,.99-2.49L180.99,13.81c1.66-3.15,5.81-6.14,9.29-6.14h64.03c3.48,0,6.14,2.99,6.47,6.14l10.12,85.75c.17,1,.17,1.99-.17,2.99-.5,2.82-2.65,4.64-5.47,4.64Z"/><path class="cls-23" d="M389.98,22.11c-.83,3.48-4.31,6.3-7.63,6.3h-28.03l-15.26,72.48c-.83,3.48-4.15,6.3-7.63,6.3h-36.66c-3.48,0-5.64-2.82-4.81-6.3l15.26-72.48h-29.03c-3.48,0-5.64-2.82-4.81-6.3l1.66-8.29c.66-3.32,4.15-6.14,7.63-6.14h106.16c3.32,0,5.47,2.82,4.81,6.14l-1.66,8.29Z"/><path class="cls-23" d="M513.55,22.11c-.83,3.48-4.31,6.3-7.63,6.3h-28.03l-15.26,72.48c-.83,3.48-4.15,6.3-7.63,6.3h-36.66c-3.48,0-5.64-2.82-4.81-6.3l15.26-72.48h-29.03c-3.48,0-5.64-2.82-4.81-6.3l1.66-8.29c.66-3.32,4.15-6.14,7.63-6.14h106.16c3.32,0,5.47,2.82,4.81,6.14l-1.66,8.29Z"/><path class="cls-23" d="M563.98,72.53l-.33-42.13-18.08,42.13h18.41Zm47.6,34.67h-40.8c-3.48,0-6.8-2.82-6.8-6.14v-13.77h-24.55l-6.14,13.77c-1.33,3.32-5.64,6.14-8.96,6.14h-40.97c-2.82,0-4.15-2.32-3.48-5.14,.17-.83,.5-1.66,.99-2.49l46.44-85.75c1.66-3.15,5.81-6.14,9.29-6.14h64.03c3.48,0,6.14,2.99,6.47,6.14l10.12,85.75c.17,1,.17,1.99-.17,2.99-.5,2.82-2.65,4.64-5.47,4.64Z"/></g><g><path class="cls-16" d="M90.99,33.5c1.49-6.47-3.15-11.78-10.28-11.78h-7.8l-15.09,70.49h7.8c7.13,0,14.1-5.14,15.43-11.61l9.95-47.11Zm36.16,56.73c-1.99,9.12-13.6,16.59-26.04,16.59H13.04c-3.48,0-5.81-2.82-4.98-6.3L26.47,13.43c.66-3.32,4.15-6.14,7.63-6.14H122.18c12.44,0,20.9,7.46,19.07,16.59l-14.1,66.35Z"/><path class="cls-16" d="M217.22,72.14l-.33-42.13-18.08,42.13h18.41Zm47.6,34.67h-40.8c-3.48,0-6.8-2.82-6.8-6.14v-13.77h-24.55l-6.14,13.77c-1.33,3.32-5.64,6.14-8.96,6.14h-40.97c-2.82,0-4.15-2.32-3.48-5.14,.17-.83,.5-1.66,.99-2.49L180.56,13.43c1.66-3.15,5.81-6.14,9.29-6.14h64.03c3.48,0,6.14,2.99,6.47,6.14l10.12,85.75c.17,1,.17,1.99-.17,2.99-.5,2.82-2.65,4.64-5.47,4.64Z"/><path class="cls-16" d="M389.55,21.72c-.83,3.48-4.31,6.3-7.63,6.3h-28.03l-15.26,72.48c-.83,3.48-4.15,6.3-7.63,6.3h-36.66c-3.48,0-5.64-2.82-4.81-6.3l15.26-72.48h-29.03c-3.48,0-5.64-2.82-4.81-6.3l1.66-8.29c.66-3.32,4.15-6.14,7.63-6.14h106.16c3.32,0,5.47,2.82,4.81,6.14l-1.66,8.29Z"/><path class="cls-16" d="M513.12,21.72c-.83,3.48-4.31,6.3-7.63,6.3h-28.03l-15.26,72.48c-.83,3.48-4.15,6.3-7.63,6.3h-36.66c-3.48,0-5.64-2.82-4.81-6.3l15.26-72.48h-29.03c-3.48,0-5.64-2.82-4.81-6.3l1.66-8.29c.66-3.32,4.15-6.14,7.63-6.14h106.16c3.32,0,5.47,2.82,4.81,6.14l-1.66,8.29Z"/><path class="cls-16" d="M563.55,72.14l-.33-42.13-18.08,42.13h18.41Zm47.6,34.67h-40.8c-3.48,0-6.8-2.82-6.8-6.14v-13.77h-24.55l-6.14,13.77c-1.33,3.32-5.64,6.14-8.96,6.14h-40.97c-2.82,0-4.15-2.32-3.48-5.14,.17-.83,.5-1.66,.99-2.49l46.44-85.75c1.66-3.15,5.81-6.14,9.29-6.14h64.03c3.48,0,6.14,2.99,6.47,6.14l10.12,85.75c.17,1,.17,1.99-.17,2.99-.5,2.82-2.65,4.64-5.47,4.64Z"/></g><g><path class="cls-21" d="M90.56,33.11c1.49-6.47-3.15-11.78-10.28-11.78h-7.8l-15.09,70.49h7.8c7.13,0,14.1-5.14,15.43-11.61l9.95-47.11Zm36.16,56.73c-1.99,9.12-13.6,16.59-26.04,16.59H12.6c-3.48,0-5.81-2.82-4.98-6.3L26.04,13.04c.66-3.32,4.15-6.14,7.63-6.14H121.75c12.44,0,20.9,7.46,19.07,16.59l-14.1,66.35Z"/><path class="cls-21" d="M216.79,71.76l-.33-42.13-18.08,42.13h18.41Zm47.6,34.67h-40.8c-3.48,0-6.8-2.82-6.8-6.14v-13.77h-24.55l-6.14,13.77c-1.33,3.32-5.64,6.14-8.96,6.14h-40.97c-2.82,0-4.15-2.32-3.48-5.14,.17-.83,.5-1.66,.99-2.49L180.13,13.04c1.66-3.15,5.81-6.14,9.29-6.14h64.03c3.48,0,6.14,2.99,6.47,6.14l10.12,85.75c.17,1,.17,1.99-.17,2.99-.5,2.82-2.65,4.64-5.47,4.64Z"/><path class="cls-21" d="M389.12,21.34c-.83,3.48-4.31,6.3-7.63,6.3h-28.03l-15.26,72.48c-.83,3.48-4.15,6.3-7.63,6.3h-36.66c-3.48,0-5.64-2.82-4.81-6.3l15.26-72.48h-29.03c-3.48,0-5.64-2.82-4.81-6.3l1.66-8.29c.66-3.32,4.15-6.14,7.63-6.14h106.16c3.32,0,5.47,2.82,4.81,6.14l-1.66,8.29Z"/><path class="cls-21" d="M512.69,21.34c-.83,3.48-4.31,6.3-7.63,6.3h-28.03l-15.26,72.48c-.83,3.48-4.15,6.3-7.63,6.3h-36.66c-3.48,0-5.64-2.82-4.81-6.3l15.26-72.48h-29.03c-3.48,0-5.64-2.82-4.81-6.3l1.66-8.29c.66-3.32,4.15-6.14,7.63-6.14h106.16c3.32,0,5.47,2.82,4.81,6.14l-1.66,8.29Z"/><path class="cls-21" d="M563.11,71.76l-.33-42.13-18.08,42.13h18.41Zm47.6,34.67h-40.8c-3.48,0-6.8-2.82-6.8-6.14v-13.77h-24.55l-6.14,13.77c-1.33,3.32-5.64,6.14-8.96,6.14h-40.97c-2.82,0-4.15-2.32-3.48-5.14,.17-.83,.5-1.66,.99-2.49l46.44-85.75c1.66-3.15,5.81-6.14,9.29-6.14h64.03c3.48,0,6.14,2.99,6.47,6.14l10.12,85.75c.17,1,.17,1.99-.17,2.99-.5,2.82-2.65,4.64-5.47,4.64Z"/></g><g><path class="cls-18" d="M90.13,32.73c1.49-6.47-3.15-11.78-10.28-11.78h-7.8l-15.09,70.49h7.8c7.13,0,14.1-5.14,15.43-11.61l9.95-47.11Zm36.16,56.73c-1.99,9.12-13.6,16.59-26.04,16.59H12.17c-3.48,0-5.81-2.82-4.98-6.3L25.61,12.66c.66-3.32,4.15-6.14,7.63-6.14H121.32c12.44,0,20.9,7.46,19.07,16.59l-14.1,66.35Z"/><path class="cls-18" d="M216.35,71.37l-.33-42.13-18.08,42.13h18.41Zm47.6,34.67h-40.8c-3.48,0-6.8-2.82-6.8-6.14v-13.77h-24.55l-6.14,13.77c-1.33,3.32-5.64,6.14-8.96,6.14h-40.97c-2.82,0-4.15-2.32-3.48-5.14,.17-.83,.5-1.66,.99-2.49L179.7,12.66c1.66-3.15,5.81-6.14,9.29-6.14h64.03c3.48,0,6.14,2.99,6.47,6.14l10.12,85.75c.17,1,.17,1.99-.17,2.99-.5,2.82-2.65,4.64-5.47,4.64Z"/><path class="cls-18" d="M388.69,20.95c-.83,3.48-4.31,6.3-7.63,6.3h-28.03l-15.26,72.48c-.83,3.48-4.15,6.3-7.63,6.3h-36.66c-3.48,0-5.64-2.82-4.81-6.3l15.26-72.48h-29.03c-3.48,0-5.64-2.82-4.81-6.3l1.66-8.29c.66-3.32,4.15-6.14,7.63-6.14h106.16c3.32,0,5.47,2.82,4.81,6.14l-1.66,8.29Z"/><path class="cls-18" d="M512.26,20.95c-.83,3.48-4.31,6.3-7.63,6.3h-28.03l-15.26,72.48c-.83,3.48-4.15,6.3-7.63,6.3h-36.66c-3.48,0-5.64-2.82-4.81-6.3l15.26-72.48h-29.03c-3.48,0-5.64-2.82-4.81-6.3l1.66-8.29c.66-3.32,4.15-6.14,7.63-6.14h106.16c3.32,0,5.47,2.82,4.81,6.14l-1.66,8.29Z"/><path class="cls-18" d="M562.68,71.37l-.33-42.13-18.08,42.13h18.41Zm47.6,34.67h-40.8c-3.48,0-6.8-2.82-6.8-6.14v-13.77h-24.55l-6.14,13.77c-1.33,3.32-5.64,6.14-8.96,6.14h-40.97c-2.82,0-4.15-2.32-3.48-5.14,.17-.83,.5-1.66,.99-2.49l46.44-85.75c1.66-3.15,5.81-6.14,9.29-6.14h64.03c3.48,0,6.14,2.99,6.47,6.14l10.12,85.75c.17,1,.17,1.99-.17,2.99-.5,2.82-2.65,4.64-5.47,4.64Z"/></g><g><path class="cls-19" d="M89.7,32.34c1.49-6.47-3.15-11.78-10.28-11.78h-7.8l-15.09,70.49h7.8c7.13,0,14.1-5.14,15.43-11.61l9.95-47.11Zm36.16,56.73c-1.99,9.12-13.6,16.59-26.04,16.59H11.74c-3.48,0-5.81-2.82-4.98-6.3L25.18,12.27c.66-3.32,4.15-6.14,7.63-6.14H120.88c12.44,0,20.9,7.46,19.07,16.59l-14.1,66.35Z"/><path class="cls-19" d="M215.92,70.99l-.33-42.13-18.08,42.13h18.41Zm47.6,34.67h-40.8c-3.48,0-6.8-2.82-6.8-6.14v-13.77h-24.55l-6.14,13.77c-1.33,3.32-5.64,6.14-8.96,6.14h-40.97c-2.82,0-4.15-2.32-3.48-5.14,.17-.83,.5-1.66,.99-2.49L179.27,12.27c1.66-3.15,5.81-6.14,9.29-6.14h64.03c3.48,0,6.14,2.99,6.47,6.14l10.12,85.75c.17,1,.17,1.99-.17,2.99-.5,2.82-2.65,4.64-5.47,4.64Z"/><path class="cls-19" d="M388.26,20.57c-.83,3.48-4.31,6.3-7.63,6.3h-28.03l-15.26,72.48c-.83,3.48-4.15,6.3-7.63,6.3h-36.66c-3.48,0-5.64-2.82-4.81-6.3l15.26-72.48h-29.03c-3.48,0-5.64-2.82-4.81-6.3l1.66-8.29c.66-3.32,4.15-6.14,7.63-6.14h106.16c3.32,0,5.47,2.82,4.81,6.14l-1.66,8.29Z"/><path class="cls-19" d="M511.83,20.57c-.83,3.48-4.31,6.3-7.63,6.3h-28.03l-15.26,72.48c-.83,3.48-4.15,6.3-7.63,6.3h-36.66c-3.48,0-5.64-2.82-4.81-6.3l15.26-72.48h-29.03c-3.48,0-5.64-2.82-4.81-6.3l1.66-8.29c.66-3.32,4.15-6.14,7.63-6.14h106.16c3.32,0,5.47,2.82,4.81,6.14l-1.66,8.29Z"/><path class="cls-19" d="M562.25,70.99l-.33-42.13-18.08,42.13h18.41Zm47.6,34.67h-40.8c-3.48,0-6.8-2.82-6.8-6.14v-13.77h-24.55l-6.14,13.77c-1.33,3.32-5.64,6.14-8.96,6.14h-40.97c-2.82,0-4.15-2.32-3.48-5.14,.17-.83,.5-1.66,.99-2.49l46.44-85.75c1.66-3.15,5.81-6.14,9.29-6.14h64.03c3.48,0,6.14,2.99,6.47,6.14l10.12,85.75c.17,1,.17,1.99-.17,2.99-.5,2.82-2.65,4.64-5.47,4.64Z"/></g><g><path class="cls-26" d="M89.27,31.96c1.49-6.47-3.15-11.78-10.28-11.78h-7.8l-15.09,70.49h7.8c7.13,0,14.1-5.14,15.43-11.61l9.95-47.11Zm36.16,56.73c-1.99,9.12-13.6,16.59-26.04,16.59H11.31c-3.48,0-5.81-2.82-4.98-6.3L24.75,11.89c.66-3.32,4.15-6.14,7.63-6.14H120.45c12.44,0,20.9,7.46,19.07,16.59l-14.1,66.35Z"/><path class="cls-26" d="M215.49,70.6l-.33-42.13-18.08,42.13h18.41Zm47.6,34.67h-40.8c-3.48,0-6.8-2.82-6.8-6.14v-13.77h-24.55l-6.14,13.77c-1.33,3.32-5.64,6.14-8.96,6.14h-40.97c-2.82,0-4.15-2.32-3.48-5.14,.17-.83,.5-1.66,.99-2.49L178.83,11.89c1.66-3.15,5.81-6.14,9.29-6.14h64.03c3.48,0,6.14,2.99,6.47,6.14l10.12,85.75c.17,1,.17,1.99-.17,2.99-.5,2.82-2.65,4.64-5.47,4.64Z"/><path class="cls-26" d="M387.83,20.18c-.83,3.48-4.31,6.3-7.63,6.3h-28.03l-15.26,72.48c-.83,3.48-4.15,6.3-7.63,6.3h-36.66c-3.48,0-5.64-2.82-4.81-6.3l15.26-72.48h-29.03c-3.48,0-5.64-2.82-4.81-6.3l1.66-8.29c.66-3.32,4.15-6.14,7.63-6.14h106.16c3.32,0,5.47,2.82,4.81,6.14l-1.66,8.29Z"/><path class="cls-26" d="M511.4,20.18c-.83,3.48-4.31,6.3-7.63,6.3h-28.03l-15.26,72.48c-.83,3.48-4.15,6.3-7.63,6.3h-36.66c-3.48,0-5.64-2.82-4.81-6.3l15.26-72.48h-29.03c-3.48,0-5.64-2.82-4.81-6.3l1.66-8.29c.66-3.32,4.15-6.14,7.63-6.14h106.16c3.32,0,5.47,2.82,4.81,6.14l-1.66,8.29Z"/><path class="cls-26" d="M561.82,70.6l-.33-42.13-18.08,42.13h18.41Zm47.6,34.67h-40.8c-3.48,0-6.8-2.82-6.8-6.14v-13.77h-24.55l-6.14,13.77c-1.33,3.32-5.64,6.14-8.96,6.14h-40.97c-2.82,0-4.15-2.32-3.48-5.14,.17-.83,.5-1.66,.99-2.49l46.44-85.75c1.66-3.15,5.81-6.14,9.29-6.14h64.03c3.48,0,6.14,2.99,6.47,6.14l10.12,85.75c.17,1,.17,1.99-.17,2.99-.5,2.82-2.65,4.64-5.47,4.64Z"/></g><g><path class="cls-25" d="M88.84,31.57c1.49-6.47-3.15-11.78-10.28-11.78h-7.8l-15.09,70.49h7.8c7.13,0,14.1-5.14,15.43-11.61l9.95-47.11Zm36.16,56.73c-1.99,9.12-13.6,16.59-26.04,16.59H10.88c-3.48,0-5.81-2.82-4.98-6.3L24.31,11.5c.66-3.32,4.15-6.14,7.63-6.14H120.02c12.44,0,20.9,7.46,19.07,16.59l-14.1,66.35Z"/><path class="cls-25" d="M215.06,70.22l-.33-42.13-18.08,42.13h18.41Zm47.6,34.67h-40.8c-3.48,0-6.8-2.82-6.8-6.14v-13.77h-24.55l-6.14,13.77c-1.33,3.32-5.64,6.14-8.96,6.14h-40.97c-2.82,0-4.15-2.32-3.48-5.14,.17-.83,.5-1.66,.99-2.49L178.4,11.5c1.66-3.15,5.81-6.14,9.29-6.14h64.03c3.48,0,6.14,2.99,6.47,6.14l10.12,85.75c.17,1,.17,1.99-.17,2.99-.5,2.82-2.65,4.64-5.47,4.64Z"/><path class="cls-25" d="M387.4,19.8c-.83,3.48-4.31,6.3-7.63,6.3h-28.03l-15.26,72.48c-.83,3.48-4.15,6.3-7.63,6.3h-36.66c-3.48,0-5.64-2.82-4.81-6.3l15.26-72.48h-29.03c-3.48,0-5.64-2.82-4.81-6.3l1.66-8.29c.66-3.32,4.15-6.14,7.63-6.14h106.16c3.32,0,5.47,2.82,4.81,6.14l-1.66,8.29Z"/><path class="cls-25" d="M510.97,19.8c-.83,3.48-4.31,6.3-7.63,6.3h-28.03l-15.26,72.48c-.83,3.48-4.15,6.3-7.63,6.3h-36.66c-3.48,0-5.64-2.82-4.81-6.3l15.26-72.48h-29.03c-3.48,0-5.64-2.82-4.81-6.3l1.66-8.29c.66-3.32,4.15-6.14,7.63-6.14h106.16c3.32,0,5.47,2.82,4.81,6.14l-1.66,8.29Z"/><path class="cls-25" d="M561.39,70.22l-.33-42.13-18.08,42.13h18.41Zm47.6,34.67h-40.8c-3.48,0-6.8-2.82-6.8-6.14v-13.77h-24.55l-6.14,13.77c-1.33,3.32-5.64,6.14-8.96,6.14h-40.97c-2.82,0-4.15-2.32-3.48-5.14,.17-.83,.5-1.66,.99-2.49l46.44-85.75c1.66-3.15,5.81-6.14,9.29-6.14h64.03c3.48,0,6.14,2.99,6.47,6.14l10.12,85.75c.17,1,.17,1.99-.17,2.99-.5,2.82-2.65,4.64-5.47,4.64Z"/></g><g><path class="cls-20" d="M88.41,31.19c1.49-6.47-3.15-11.78-10.28-11.78h-7.8l-15.09,70.49h7.8c7.13,0,14.1-5.14,15.43-11.61l9.95-47.11Zm36.16,56.73c-1.99,9.12-13.6,16.59-26.04,16.59H10.45c-3.48,0-5.81-2.82-4.98-6.3L23.88,11.12c.66-3.32,4.15-6.14,7.63-6.14H119.59c12.44,0,20.9,7.46,19.07,16.59l-14.1,66.35Z"/><path class="cls-20" d="M214.63,69.83l-.33-42.13-18.08,42.13h18.41Zm47.6,34.67h-40.8c-3.48,0-6.8-2.82-6.8-6.14v-13.77h-24.55l-6.14,13.77c-1.33,3.32-5.64,6.14-8.96,6.14h-40.97c-2.82,0-4.15-2.32-3.48-5.14,.17-.83,.5-1.66,.99-2.49L177.97,11.12c1.66-3.15,5.81-6.14,9.29-6.14h64.03c3.48,0,6.14,2.99,6.47,6.14l10.12,85.75c.17,1,.17,1.99-.17,2.99-.5,2.82-2.65,4.64-5.47,4.64Z"/><path class="cls-20" d="M386.96,19.41c-.83,3.48-4.31,6.3-7.63,6.3h-28.03l-15.26,72.48c-.83,3.48-4.15,6.3-7.63,6.3h-36.66c-3.48,0-5.64-2.82-4.81-6.3l15.26-72.48h-29.03c-3.48,0-5.64-2.82-4.81-6.3l1.66-8.29c.66-3.32,4.15-6.14,7.63-6.14h106.16c3.32,0,5.47,2.82,4.81,6.14l-1.66,8.29Z"/><path class="cls-20" d="M510.53,19.41c-.83,3.48-4.31,6.3-7.63,6.3h-28.03l-15.26,72.48c-.83,3.48-4.15,6.3-7.63,6.3h-36.66c-3.48,0-5.64-2.82-4.81-6.3l15.26-72.48h-29.03c-3.48,0-5.64-2.82-4.81-6.3l1.66-8.29c.66-3.32,4.15-6.14,7.63-6.14h106.16c3.32,0,5.47,2.82,4.81,6.14l-1.66,8.29Z"/><path class="cls-20" d="M560.96,69.83l-.33-42.13-18.08,42.13h18.41Zm47.6,34.67h-40.8c-3.48,0-6.8-2.82-6.8-6.14v-13.77h-24.55l-6.14,13.77c-1.33,3.32-5.64,6.14-8.96,6.14h-40.97c-2.82,0-4.15-2.32-3.48-5.14,.17-.83,.5-1.66,.99-2.49l46.44-85.75c1.66-3.15,5.81-6.14,9.29-6.14h64.03c3.48,0,6.14,2.99,6.47,6.14l10.12,85.75c.17,1,.17,1.99-.17,2.99-.5,2.82-2.65,4.64-5.47,4.64Z"/></g><g><path class="cls-24" d="M87.98,30.8c1.49-6.47-3.15-11.78-10.28-11.78h-7.8l-15.09,70.49h7.8c7.13,0,14.1-5.14,15.43-11.61l9.95-47.11Zm36.16,56.73c-1.99,9.12-13.6,16.59-26.04,16.59H10.02c-3.48,0-5.81-2.82-4.98-6.3L23.45,10.73c.66-3.32,4.15-6.14,7.63-6.14H119.16c12.44,0,20.9,7.46,19.07,16.59l-14.1,66.35Z"/><path class="cls-24" d="M214.2,69.45l-.33-42.13-18.08,42.13h18.41Zm47.6,34.67h-40.8c-3.48,0-6.8-2.82-6.8-6.14v-13.77h-24.55l-6.14,13.77c-1.33,3.32-5.64,6.14-8.96,6.14h-40.97c-2.82,0-4.15-2.32-3.48-5.14,.17-.83,.5-1.66,.99-2.49L177.54,10.73c1.66-3.15,5.81-6.14,9.29-6.14h64.03c3.48,0,6.14,2.99,6.47,6.14l10.12,85.75c.17,1,.17,1.99-.17,2.99-.5,2.82-2.65,4.64-5.47,4.64Z"/><path class="cls-24" d="M386.53,19.03c-.83,3.48-4.31,6.3-7.63,6.3h-28.03l-15.26,72.48c-.83,3.48-4.15,6.3-7.63,6.3h-36.66c-3.48,0-5.64-2.82-4.81-6.3l15.26-72.48h-29.03c-3.48,0-5.64-2.82-4.81-6.3l1.66-8.29c.66-3.32,4.15-6.14,7.63-6.14h106.16c3.32,0,5.47,2.82,4.81,6.14l-1.66,8.29Z"/><path class="cls-24" d="M510.1,19.03c-.83,3.48-4.31,6.3-7.63,6.3h-28.03l-15.26,72.48c-.83,3.48-4.15,6.3-7.63,6.3h-36.66c-3.48,0-5.64-2.82-4.81-6.3l15.26-72.48h-29.03c-3.48,0-5.64-2.82-4.81-6.3l1.66-8.29c.66-3.32,4.15-6.14,7.63-6.14h106.16c3.32,0,5.47,2.82,4.81,6.14l-1.66,8.29Z"/><path class="cls-24" d="M560.53,69.45l-.33-42.13-18.08,42.13h18.41Zm47.6,34.67h-40.8c-3.48,0-6.8-2.82-6.8-6.14v-13.77h-24.55l-6.14,13.77c-1.33,3.32-5.64,6.14-8.96,6.14h-40.97c-2.82,0-4.15-2.32-3.48-5.14,.17-.83,.5-1.66,.99-2.49l46.44-85.75c1.66-3.15,5.81-6.14,9.29-6.14h64.03c3.48,0,6.14,2.99,6.47,6.14l10.12,85.75c.17,1,.17,1.99-.17,2.99-.5,2.82-2.65,4.64-5.47,4.64Z"/></g><g><path class="cls-8" d="M87.54,30.42c1.49-6.47-3.15-11.78-10.28-11.78h-7.8l-15.09,70.49h7.8c7.13,0,14.1-5.14,15.43-11.61l9.95-47.11Zm36.16,56.73c-1.99,9.12-13.6,16.59-26.04,16.59H9.59c-3.48,0-5.81-2.82-4.98-6.3L23.02,10.35c.66-3.32,4.15-6.14,7.63-6.14H118.73c12.44,0,20.9,7.46,19.07,16.59l-14.1,66.35Z"/><path class="cls-8" d="M213.77,69.06l-.33-42.13-18.08,42.13h18.41Zm47.6,34.67h-40.8c-3.48,0-6.8-2.82-6.8-6.14v-13.77h-24.55l-6.14,13.77c-1.33,3.32-5.64,6.14-8.96,6.14h-40.97c-2.82,0-4.15-2.32-3.48-5.14,.17-.83,.5-1.66,.99-2.49L177.11,10.35c1.66-3.15,5.81-6.14,9.29-6.14h64.03c3.48,0,6.14,2.99,6.47,6.14l10.12,85.75c.17,1,.17,1.99-.17,2.99-.5,2.82-2.65,4.64-5.47,4.64Z"/><path class="cls-8" d="M386.1,18.64c-.83,3.48-4.31,6.3-7.63,6.3h-28.03l-15.26,72.48c-.83,3.48-4.15,6.3-7.63,6.3h-36.66c-3.48,0-5.64-2.82-4.81-6.3l15.26-72.48h-29.03c-3.48,0-5.64-2.82-4.81-6.3l1.66-8.29c.66-3.32,4.15-6.14,7.63-6.14h106.16c3.32,0,5.47,2.82,4.81,6.14l-1.66,8.29Z"/><path class="cls-8" d="M509.67,18.64c-.83,3.48-4.31,6.3-7.63,6.3h-28.03l-15.26,72.48c-.83,3.48-4.15,6.3-7.63,6.3h-36.66c-3.48,0-5.64-2.82-4.81-6.3l15.26-72.48h-29.03c-3.48,0-5.64-2.82-4.81-6.3l1.66-8.29c.66-3.32,4.15-6.14,7.63-6.14h106.16c3.32,0,5.47,2.82,4.81,6.14l-1.66,8.29Z"/><path class="cls-8" d="M560.1,69.06l-.33-42.13-18.08,42.13h18.41Zm47.6,34.67h-40.8c-3.48,0-6.8-2.82-6.8-6.14v-13.77h-24.55l-6.14,13.77c-1.33,3.32-5.64,6.14-8.96,6.14h-40.97c-2.82,0-4.15-2.32-3.48-5.14,.17-.83,.5-1.66,.99-2.49l46.44-85.75c1.66-3.15,5.81-6.14,9.29-6.14h64.03c3.48,0,6.14,2.99,6.47,6.14l10.12,85.75c.17,1,.17,1.99-.17,2.99-.5,2.82-2.65,4.64-5.47,4.64Z"/></g><g><path class="cls-2" d="M87.11,30.03c1.49-6.47-3.15-11.78-10.28-11.78h-7.8l-15.09,70.49h7.8c7.13,0,14.1-5.14,15.43-11.61l9.95-47.11Zm36.16,56.73c-1.99,9.12-13.6,16.59-26.04,16.59H9.15c-3.48,0-5.81-2.82-4.98-6.3L22.59,9.96c.66-3.32,4.15-6.14,7.63-6.14H118.3c12.44,0,20.9,7.46,19.07,16.59l-14.1,66.35Z"/><path class="cls-2" d="M213.34,68.68l-.33-42.13-18.08,42.13h18.41Zm47.6,34.67h-40.8c-3.48,0-6.8-2.82-6.8-6.14v-13.77h-24.55l-6.14,13.77c-1.33,3.32-5.64,6.14-8.96,6.14h-40.97c-2.82,0-4.15-2.32-3.48-5.14,.17-.83,.5-1.66,.99-2.49L176.68,9.96c1.66-3.15,5.81-6.14,9.29-6.14h64.03c3.48,0,6.14,2.99,6.47,6.14l10.12,85.75c.17,1,.17,1.99-.17,2.99-.5,2.82-2.65,4.64-5.47,4.64Z"/><path class="cls-2" d="M385.67,18.26c-.83,3.48-4.31,6.3-7.63,6.3h-28.03l-15.26,72.48c-.83,3.48-4.15,6.3-7.63,6.3h-36.66c-3.48,0-5.64-2.82-4.81-6.3l15.26-72.48h-29.03c-3.48,0-5.64-2.82-4.81-6.3l1.66-8.29c.66-3.32,4.15-6.14,7.63-6.14h106.16c3.32,0,5.47,2.82,4.81,6.14l-1.66,8.29Z"/><path class="cls-2" d="M509.24,18.26c-.83,3.48-4.31,6.3-7.63,6.3h-28.03l-15.26,72.48c-.83,3.48-4.15,6.3-7.63,6.3h-36.66c-3.48,0-5.64-2.82-4.81-6.3l15.26-72.48h-29.03c-3.48,0-5.64-2.82-4.81-6.3l1.66-8.29c.66-3.32,4.15-6.14,7.63-6.14h106.16c3.32,0,5.47,2.82,4.81,6.14l-1.66,8.29Z"/><path class="cls-2" d="M559.66,68.68l-.33-42.13-18.08,42.13h18.41Zm47.6,34.67h-40.8c-3.48,0-6.8-2.82-6.8-6.14v-13.77h-24.55l-6.14,13.77c-1.33,3.32-5.64,6.14-8.96,6.14h-40.97c-2.82,0-4.15-2.32-3.48-5.14,.17-.83,.5-1.66,.99-2.49l46.44-85.75c1.66-3.15,5.81-6.14,9.29-6.14h64.03c3.48,0,6.14,2.99,6.47,6.14l10.12,85.75c.17,1,.17,1.99-.17,2.99-.5,2.82-2.65,4.64-5.47,4.64Z"/></g><g><path class="cls-6" d="M86.68,29.65c1.49-6.47-3.15-11.78-10.28-11.78h-7.8l-15.09,70.49h7.8c7.13,0,14.1-5.14,15.43-11.61l9.95-47.11Zm36.16,56.73c-1.99,9.12-13.6,16.59-26.04,16.59H8.72c-3.48,0-5.81-2.82-4.98-6.3L22.16,9.58c.66-3.32,4.15-6.14,7.63-6.14H117.87c12.44,0,20.9,7.46,19.07,16.59l-14.1,66.35Z"/><path class="cls-6" d="M212.9,68.29l-.33-42.13-18.08,42.13h18.41Zm47.6,34.67h-40.8c-3.48,0-6.8-2.82-6.8-6.14v-13.77h-24.55l-6.14,13.77c-1.33,3.32-5.64,6.14-8.96,6.14h-40.97c-2.82,0-4.15-2.32-3.48-5.14,.17-.83,.5-1.66,.99-2.49L176.25,9.58c1.66-3.15,5.81-6.14,9.29-6.14h64.03c3.48,0,6.14,2.99,6.47,6.14l10.12,85.75c.17,1,.17,1.99-.17,2.99-.5,2.82-2.65,4.64-5.47,4.64Z"/><path class="cls-6" d="M385.24,17.87c-.83,3.48-4.31,6.3-7.63,6.3h-28.03l-15.26,72.48c-.83,3.48-4.15,6.3-7.63,6.3h-36.66c-3.48,0-5.64-2.82-4.81-6.3l15.26-72.48h-29.03c-3.48,0-5.64-2.82-4.81-6.3l1.66-8.29c.66-3.32,4.15-6.14,7.63-6.14h106.16c3.32,0,5.47,2.82,4.81,6.14l-1.66,8.29Z"/><path class="cls-6" d="M508.81,17.87c-.83,3.48-4.31,6.3-7.63,6.3h-28.03l-15.26,72.48c-.83,3.48-4.15,6.3-7.63,6.3h-36.66c-3.48,0-5.64-2.82-4.81-6.3l15.26-72.48h-29.03c-3.48,0-5.64-2.82-4.81-6.3l1.66-8.29c.66-3.32,4.15-6.14,7.63-6.14h106.16c3.32,0,5.47,2.82,4.81,6.14l-1.66,8.29Z"/><path class="cls-6" d="M559.23,68.29l-.33-42.13-18.08,42.13h18.41Zm47.6,34.67h-40.8c-3.48,0-6.8-2.82-6.8-6.14v-13.77h-24.55l-6.14,13.77c-1.33,3.32-5.64,6.14-8.96,6.14h-40.97c-2.82,0-4.15-2.32-3.48-5.14,.17-.83,.5-1.66,.99-2.49l46.44-85.75c1.66-3.15,5.81-6.14,9.29-6.14h64.03c3.48,0,6.14,2.99,6.47,6.14l10.12,85.75c.17,1,.17,1.99-.17,2.99-.5,2.82-2.65,4.64-5.47,4.64Z"/></g><g><path class="cls-7" d="M86.25,29.26c1.49-6.47-3.15-11.78-10.28-11.78h-7.8l-15.09,70.49h7.8c7.13,0,14.1-5.14,15.43-11.61l9.95-47.11Zm36.16,56.73c-1.99,9.12-13.6,16.59-26.04,16.59H8.29c-3.48,0-5.81-2.82-4.98-6.3L21.73,9.19c.66-3.32,4.15-6.14,7.63-6.14H117.43c12.44,0,20.9,7.46,19.07,16.59l-14.1,66.35Z"/><path class="cls-7" d="M212.47,67.91l-.33-42.13-18.08,42.13h18.41Zm47.6,34.67h-40.8c-3.48,0-6.8-2.82-6.8-6.14v-13.77h-24.55l-6.14,13.77c-1.33,3.32-5.64,6.14-8.96,6.14h-40.97c-2.82,0-4.15-2.32-3.48-5.14,.17-.83,.5-1.66,.99-2.49L175.82,9.19c1.66-3.15,5.81-6.14,9.29-6.14h64.03c3.48,0,6.14,2.99,6.47,6.14l10.12,85.75c.17,1,.17,1.99-.17,2.99-.5,2.82-2.65,4.64-5.47,4.64Z"/><path class="cls-7" d="M384.81,17.49c-.83,3.48-4.31,6.3-7.63,6.3h-28.03l-15.26,72.48c-.83,3.48-4.15,6.3-7.63,6.3h-36.66c-3.48,0-5.64-2.82-4.81-6.3l15.26-72.48h-29.03c-3.48,0-5.64-2.82-4.81-6.3l1.66-8.29c.66-3.32,4.15-6.14,7.63-6.14h106.16c3.32,0,5.47,2.82,4.81,6.14l-1.66,8.29Z"/><path class="cls-7" d="M508.38,17.49c-.83,3.48-4.31,6.3-7.63,6.3h-28.03l-15.26,72.48c-.83,3.48-4.15,6.3-7.63,6.3h-36.66c-3.48,0-5.64-2.82-4.81-6.3l15.26-72.48h-29.03c-3.48,0-5.64-2.82-4.81-6.3l1.66-8.29c.66-3.32,4.15-6.14,7.63-6.14h106.16c3.32,0,5.47,2.82,4.81,6.14l-1.66,8.29Z"/><path class="cls-7" d="M558.8,67.91l-.33-42.13-18.08,42.13h18.41Zm47.6,34.67h-40.8c-3.48,0-6.8-2.82-6.8-6.14v-13.77h-24.55l-6.14,13.77c-1.33,3.32-5.64,6.14-8.96,6.14h-40.97c-2.82,0-4.15-2.32-3.48-5.14,.17-.83,.5-1.66,.99-2.49l46.44-85.75c1.66-3.15,5.81-6.14,9.29-6.14h64.03c3.48,0,6.14,2.99,6.47,6.14l10.12,85.75c.17,1,.17,1.99-.17,2.99-.5,2.82-2.65,4.64-5.47,4.64Z"/></g><g><path class="cls-52" d="M85.82,28.88c1.49-6.47-3.15-11.78-10.28-11.78h-7.8l-15.09,70.49h7.8c7.13,0,14.1-5.14,15.43-11.61l9.95-47.11Zm36.16,56.73c-1.99,9.12-13.6,16.59-26.04,16.59H7.86c-3.48,0-5.81-2.82-4.98-6.3L21.3,8.81c.66-3.32,4.15-6.14,7.63-6.14H117c12.44,0,20.9,7.46,19.07,16.59l-14.1,66.35Z"/><path class="cls-52" d="M212.04,67.52l-.33-42.13-18.08,42.13h18.41Zm47.6,34.67h-40.8c-3.48,0-6.8-2.82-6.8-6.14v-13.77h-24.55l-6.14,13.77c-1.33,3.32-5.64,6.14-8.96,6.14h-40.97c-2.82,0-4.15-2.32-3.48-5.14,.17-.83,.5-1.66,.99-2.49L175.38,8.81c1.66-3.15,5.81-6.14,9.29-6.14h64.03c3.48,0,6.14,2.99,6.47,6.14l10.12,85.75c.17,1,.17,1.99-.17,2.99-.5,2.82-2.65,4.64-5.47,4.64Z"/><path class="cls-52" d="M384.38,17.1c-.83,3.48-4.31,6.3-7.63,6.3h-28.03l-15.26,72.48c-.83,3.48-4.15,6.3-7.63,6.3h-36.66c-3.48,0-5.64-2.82-4.81-6.3l15.26-72.48h-29.03c-3.48,0-5.64-2.82-4.81-6.3l1.66-8.29c.66-3.32,4.15-6.14,7.63-6.14h106.16c3.32,0,5.47,2.82,4.81,6.14l-1.66,8.29Z"/><path class="cls-52" d="M507.95,17.1c-.83,3.48-4.31,6.3-7.63,6.3h-28.03l-15.26,72.48c-.83,3.48-4.15,6.3-7.63,6.3h-36.66c-3.48,0-5.64-2.82-4.81-6.3l15.26-72.48h-29.03c-3.48,0-5.64-2.82-4.81-6.3l1.66-8.29c.66-3.32,4.15-6.14,7.63-6.14h106.16c3.32,0,5.47,2.82,4.81,6.14l-1.66,8.29Z"/><path class="cls-52" d="M558.37,67.52l-.33-42.13-18.08,42.13h18.41Zm47.6,34.67h-40.8c-3.48,0-6.8-2.82-6.8-6.14v-13.77h-24.55l-6.14,13.77c-1.33,3.32-5.64,6.14-8.96,6.14h-40.97c-2.82,0-4.15-2.32-3.48-5.14,.17-.83,.5-1.66,.99-2.49l46.44-85.75c1.66-3.15,5.81-6.14,9.29-6.14h64.03c3.48,0,6.14,2.99,6.47,6.14l10.12,85.75c.17,1,.17,1.99-.17,2.99-.5,2.82-2.65,4.64-5.47,4.64Z"/></g><g><path class="cls-4" d="M85.39,28.49c1.49-6.47-3.15-11.78-10.28-11.78h-7.8l-15.09,70.49h7.8c7.13,0,14.1-5.14,15.43-11.61l9.95-47.11Zm36.16,56.73c-1.99,9.12-13.6,16.59-26.04,16.59H7.43c-3.48,0-5.81-2.82-4.98-6.3L20.86,8.42c.66-3.32,4.15-6.14,7.63-6.14H116.57c12.44,0,20.9,7.46,19.07,16.59l-14.1,66.35Z"/><path class="cls-4" d="M211.61,67.14l-.33-42.13-18.08,42.13h18.41Zm47.6,34.67h-40.8c-3.48,0-6.8-2.82-6.8-6.14v-13.77h-24.55l-6.14,13.77c-1.33,3.32-5.64,6.14-8.96,6.14h-40.97c-2.82,0-4.15-2.32-3.48-5.14,.17-.83,.5-1.66,.99-2.49L174.95,8.42c1.66-3.15,5.81-6.14,9.29-6.14h64.03c3.48,0,6.14,2.99,6.47,6.14l10.12,85.75c.17,1,.17,1.99-.17,2.99-.5,2.82-2.65,4.64-5.47,4.64Z"/><path class="cls-4" d="M383.95,16.72c-.83,3.48-4.31,6.3-7.63,6.3h-28.03l-15.26,72.48c-.83,3.48-4.15,6.3-7.63,6.3h-36.66c-3.48,0-5.64-2.82-4.81-6.3l15.26-72.48h-29.03c-3.48,0-5.64-2.82-4.81-6.3l1.66-8.29c.66-3.32,4.15-6.14,7.63-6.14h106.16c3.32,0,5.47,2.82,4.81,6.14l-1.66,8.29Z"/><path class="cls-4" d="M507.52,16.72c-.83,3.48-4.31,6.3-7.63,6.3h-28.03l-15.26,72.48c-.83,3.48-4.15,6.3-7.63,6.3h-36.66c-3.48,0-5.64-2.82-4.81-6.3l15.26-72.48h-29.03c-3.48,0-5.64-2.82-4.81-6.3l1.66-8.29c.66-3.32,4.15-6.14,7.63-6.14h106.16c3.32,0,5.47,2.82,4.81,6.14l-1.66,8.29Z"/><path class="cls-4" d="M557.94,67.14l-.33-42.13-18.08,42.13h18.41Zm47.6,34.67h-40.8c-3.48,0-6.8-2.82-6.8-6.14v-13.77h-24.55l-6.14,13.77c-1.33,3.32-5.64,6.14-8.96,6.14h-40.97c-2.82,0-4.15-2.32-3.48-5.14,.17-.83,.5-1.66,.99-2.49l46.44-85.75c1.66-3.15,5.81-6.14,9.29-6.14h64.03c3.48,0,6.14,2.99,6.47,6.14l10.12,85.75c.17,1,.17,1.99-.17,2.99-.5,2.82-2.65,4.64-5.47,4.64Z"/></g></svg>